%TF.GenerationSoftware,KiCad,Pcbnew,7.0.2*%
%TF.CreationDate,2024-01-20T15:19:51+00:00*%
%TF.ProjectId,Si5351a and Audio Gain Board,53693533-3531-4612-9061-6e6420417564,rev?*%
%TF.SameCoordinates,Original*%
%TF.FileFunction,Soldermask,Bot*%
%TF.FilePolarity,Negative*%
%FSLAX46Y46*%
G04 Gerber Fmt 4.6, Leading zero omitted, Abs format (unit mm)*
G04 Created by KiCad (PCBNEW 7.0.2) date 2024-01-20 15:19:51*
%MOMM*%
%LPD*%
G01*
G04 APERTURE LIST*
G04 Aperture macros list*
%AMRoundRect*
0 Rectangle with rounded corners*
0 $1 Rounding radius*
0 $2 $3 $4 $5 $6 $7 $8 $9 X,Y pos of 4 corners*
0 Add a 4 corners polygon primitive as box body*
4,1,4,$2,$3,$4,$5,$6,$7,$8,$9,$2,$3,0*
0 Add four circle primitives for the rounded corners*
1,1,$1+$1,$2,$3*
1,1,$1+$1,$4,$5*
1,1,$1+$1,$6,$7*
1,1,$1+$1,$8,$9*
0 Add four rect primitives between the rounded corners*
20,1,$1+$1,$2,$3,$4,$5,0*
20,1,$1+$1,$4,$5,$6,$7,0*
20,1,$1+$1,$6,$7,$8,$9,0*
20,1,$1+$1,$8,$9,$2,$3,0*%
G04 Aperture macros list end*
%ADD10O,1.600000X1.600000*%
%ADD11R,1.600000X1.600000*%
%ADD12C,1.211000*%
%ADD13RoundRect,0.102000X0.675000X0.675000X-0.675000X0.675000X-0.675000X-0.675000X0.675000X-0.675000X0*%
%ADD14C,1.554000*%
%ADD15RoundRect,0.102000X0.825000X0.825000X-0.825000X0.825000X-0.825000X-0.825000X0.825000X-0.825000X0*%
%ADD16C,1.854000*%
%ADD17O,3.204000X6.204000*%
%ADD18RoundRect,0.102000X1.750000X0.750000X-1.750000X0.750000X-1.750000X-0.750000X1.750000X-0.750000X0*%
%ADD19C,0.700000*%
%ADD20O,2.400000X0.900000*%
%ADD21O,1.700000X0.900000*%
%ADD22R,1.700000X1.700000*%
%ADD23O,1.700000X1.700000*%
G04 APERTURE END LIST*
D10*
%TO.C,U2*%
X103520000Y-104580000D03*
X106060000Y-104580000D03*
X108600000Y-104580000D03*
X111140000Y-104580000D03*
X113680000Y-104580000D03*
X116220000Y-104580000D03*
X118760000Y-104580000D03*
X121300000Y-104580000D03*
X123840000Y-104580000D03*
X126380000Y-104580000D03*
X128920000Y-104580000D03*
X131460000Y-104580000D03*
X134000000Y-104580000D03*
X136540000Y-104580000D03*
X136540000Y-112200000D03*
X134000000Y-112200000D03*
X131460000Y-112200000D03*
X128920000Y-112200000D03*
X126380000Y-112200000D03*
X123840000Y-112200000D03*
X121300000Y-112200000D03*
X118760000Y-112200000D03*
X116220000Y-112200000D03*
X113680000Y-112200000D03*
X111140000Y-112200000D03*
X108600000Y-112200000D03*
X106060000Y-112200000D03*
D11*
X103520000Y-112200000D03*
%TD*%
D12*
%TO.C,Y2*%
X123320000Y-96325000D03*
X118440000Y-96325000D03*
%TD*%
D13*
%TO.C,U3*%
X131460000Y-60600000D03*
D14*
X128920000Y-60600000D03*
X126380000Y-60600000D03*
%TD*%
D15*
%TO.C,MT1*%
X157120000Y-74600000D03*
D16*
X152120000Y-74600000D03*
X157120000Y-60100000D03*
X152120000Y-60100000D03*
X154620000Y-60100000D03*
D17*
X160320000Y-67600000D03*
X148920000Y-67600000D03*
%TD*%
D18*
%TO.C,J3*%
X175120000Y-84700000D03*
X175120000Y-90100000D03*
%TD*%
D19*
%TO.C,J1*%
X103270000Y-62750000D03*
X103270000Y-63600000D03*
X103270000Y-64450000D03*
X103270000Y-65300000D03*
X103270000Y-66150000D03*
X103270000Y-67000000D03*
X103270000Y-67850000D03*
X103270000Y-68700000D03*
X101920000Y-68700000D03*
X101920000Y-67850000D03*
X101920000Y-67000000D03*
X101920000Y-66150000D03*
X101920000Y-65300000D03*
X101920000Y-64450000D03*
X101920000Y-63600000D03*
X101920000Y-62750000D03*
D20*
X102290000Y-61400000D03*
D21*
X98910000Y-61400000D03*
D20*
X102290000Y-70050000D03*
D21*
X98910000Y-70050000D03*
%TD*%
D22*
%TO.C,J5*%
X151040000Y-101600000D03*
D23*
X153580000Y-101600000D03*
X156120000Y-101600000D03*
X158660000Y-101600000D03*
%TD*%
D18*
%TO.C,J4*%
X175120000Y-102500000D03*
X175120000Y-107900000D03*
%TD*%
%TO.C,J2*%
X175120000Y-72500000D03*
X175120000Y-67100000D03*
%TD*%
M02*
