%TF.GenerationSoftware,KiCad,Pcbnew,7.0.2*%
%TF.CreationDate,2024-01-20T15:19:51+00:00*%
%TF.ProjectId,Si5351a and Audio Gain Board,53693533-3531-4612-9061-6e6420417564,rev?*%
%TF.SameCoordinates,Original*%
%TF.FileFunction,Paste,Top*%
%TF.FilePolarity,Positive*%
%FSLAX46Y46*%
G04 Gerber Fmt 4.6, Leading zero omitted, Abs format (unit mm)*
G04 Created by KiCad (PCBNEW 7.0.2) date 2024-01-20 15:19:51*
%MOMM*%
%LPD*%
G01*
G04 APERTURE LIST*
G04 Aperture macros list*
%AMRoundRect*
0 Rectangle with rounded corners*
0 $1 Rounding radius*
0 $2 $3 $4 $5 $6 $7 $8 $9 X,Y pos of 4 corners*
0 Add a 4 corners polygon primitive as box body*
4,1,4,$2,$3,$4,$5,$6,$7,$8,$9,$2,$3,0*
0 Add four circle primitives for the rounded corners*
1,1,$1+$1,$2,$3*
1,1,$1+$1,$4,$5*
1,1,$1+$1,$6,$7*
1,1,$1+$1,$8,$9*
0 Add four rect primitives between the rounded corners*
20,1,$1+$1,$2,$3,$4,$5,0*
20,1,$1+$1,$4,$5,$6,$7,0*
20,1,$1+$1,$6,$7,$8,$9,0*
20,1,$1+$1,$8,$9,$2,$3,0*%
G04 Aperture macros list end*
%ADD10RoundRect,0.250000X0.400000X0.625000X-0.400000X0.625000X-0.400000X-0.625000X0.400000X-0.625000X0*%
%ADD11RoundRect,0.250000X-0.650000X0.412500X-0.650000X-0.412500X0.650000X-0.412500X0.650000X0.412500X0*%
%ADD12RoundRect,0.250000X-0.412500X-0.650000X0.412500X-0.650000X0.412500X0.650000X-0.412500X0.650000X0*%
%ADD13RoundRect,0.250000X0.412500X0.650000X-0.412500X0.650000X-0.412500X-0.650000X0.412500X-0.650000X0*%
%ADD14RoundRect,0.250000X-0.400000X-0.625000X0.400000X-0.625000X0.400000X0.625000X-0.400000X0.625000X0*%
%ADD15RoundRect,0.250000X0.650000X-0.412500X0.650000X0.412500X-0.650000X0.412500X-0.650000X-0.412500X0*%
%ADD16RoundRect,0.250000X0.625000X-0.400000X0.625000X0.400000X-0.625000X0.400000X-0.625000X-0.400000X0*%
%ADD17RoundRect,0.250000X-0.625000X0.400000X-0.625000X-0.400000X0.625000X-0.400000X0.625000X0.400000X0*%
%ADD18R,3.500000X1.500000*%
%ADD19R,1.400000X0.300000*%
%ADD20R,1.750000X0.450000*%
%ADD21R,0.700000X0.750000*%
G04 APERTURE END LIST*
D10*
%TO.C,R10*%
X133670000Y-86200000D03*
X130570000Y-86200000D03*
%TD*%
D11*
%TO.C,C9*%
X132320000Y-71837500D03*
X132320000Y-74962500D03*
%TD*%
D12*
%TO.C,C8*%
X124195000Y-101800000D03*
X127320000Y-101800000D03*
%TD*%
D13*
%TO.C,C7*%
X126520000Y-92200000D03*
X123395000Y-92200000D03*
%TD*%
D12*
%TO.C,C5*%
X115320000Y-92200000D03*
X118445000Y-92200000D03*
%TD*%
D11*
%TO.C,C4*%
X123120000Y-60600000D03*
X123120000Y-63725000D03*
%TD*%
D14*
%TO.C,R7*%
X102220000Y-82800000D03*
X99120000Y-82800000D03*
%TD*%
%TO.C,R6*%
X102220000Y-78600000D03*
X99120000Y-78600000D03*
%TD*%
D10*
%TO.C,D2*%
X106520000Y-82800000D03*
X109620000Y-82800000D03*
%TD*%
D15*
%TO.C,C6*%
X133320000Y-84000000D03*
X133320000Y-80875000D03*
%TD*%
D16*
%TO.C,R9*%
X164120000Y-64400000D03*
X164120000Y-61300000D03*
%TD*%
D10*
%TO.C,R8*%
X157120000Y-77200000D03*
X154020000Y-77200000D03*
%TD*%
D16*
%TO.C,R5*%
X145720000Y-64600000D03*
X145720000Y-61500000D03*
%TD*%
%TO.C,R4*%
X113320000Y-64400000D03*
X113320000Y-61300000D03*
%TD*%
%TO.C,R3*%
X110920000Y-64400000D03*
X110920000Y-61300000D03*
%TD*%
D17*
%TO.C,R2*%
X113320000Y-69600000D03*
X113320000Y-72700000D03*
%TD*%
%TO.C,R1*%
X110920000Y-69600000D03*
X110920000Y-72700000D03*
%TD*%
D18*
%TO.C,J3*%
X175120000Y-84700000D03*
X175120000Y-90100000D03*
X175120000Y-87400000D03*
%TD*%
%TO.C,J4*%
X175120000Y-102500000D03*
X175120000Y-107900000D03*
X175120000Y-105200000D03*
%TD*%
D15*
%TO.C,C3*%
X136320000Y-74962500D03*
X136320000Y-71837500D03*
%TD*%
D19*
%TO.C,U1*%
X154120000Y-88900000D03*
X154120000Y-89400000D03*
X154120000Y-89900000D03*
X154120000Y-90400000D03*
X154120000Y-90900000D03*
X158520000Y-90900000D03*
X158520000Y-90400000D03*
X158520000Y-89900000D03*
X158520000Y-89400000D03*
X158520000Y-88900000D03*
%TD*%
D20*
%TO.C,U5*%
X128720000Y-76850000D03*
X128720000Y-76200000D03*
X128720000Y-75550000D03*
X128720000Y-74900000D03*
X128720000Y-74250000D03*
X128720000Y-73600000D03*
X128720000Y-72950000D03*
X128720000Y-72300000D03*
X128720000Y-71650000D03*
X128720000Y-71000000D03*
X128720000Y-70350000D03*
X128720000Y-69700000D03*
X128720000Y-69050000D03*
X128720000Y-68400000D03*
X121520000Y-68400000D03*
X121520000Y-69050000D03*
X121520000Y-69700000D03*
X121520000Y-70350000D03*
X121520000Y-71000000D03*
X121520000Y-71650000D03*
X121520000Y-72300000D03*
X121520000Y-72950000D03*
X121520000Y-73600000D03*
X121520000Y-74250000D03*
X121520000Y-74900000D03*
X121520000Y-75550000D03*
X121520000Y-76200000D03*
X121520000Y-76850000D03*
%TD*%
D21*
%TO.C,Y1*%
X149720000Y-90350000D03*
X149720000Y-89000000D03*
X148720000Y-89000000D03*
X148720000Y-90350000D03*
%TD*%
D10*
%TO.C,D1*%
X106420000Y-78600000D03*
X109520000Y-78600000D03*
%TD*%
D18*
%TO.C,J2*%
X175120000Y-69800000D03*
X175120000Y-72500000D03*
X175120000Y-67100000D03*
%TD*%
D11*
%TO.C,C2*%
X135320000Y-60675000D03*
X135320000Y-63800000D03*
%TD*%
D15*
%TO.C,C1*%
X152120000Y-86925000D03*
X152120000Y-83800000D03*
%TD*%
M02*
