%TF.GenerationSoftware,KiCad,Pcbnew,7.0.2*%
%TF.CreationDate,2024-01-20T15:19:51+00:00*%
%TF.ProjectId,Si5351a and Audio Gain Board,53693533-3531-4612-9061-6e6420417564,rev?*%
%TF.SameCoordinates,Original*%
%TF.FileFunction,Copper,L2,Bot*%
%TF.FilePolarity,Positive*%
%FSLAX46Y46*%
G04 Gerber Fmt 4.6, Leading zero omitted, Abs format (unit mm)*
G04 Created by KiCad (PCBNEW 7.0.2) date 2024-01-20 15:19:51*
%MOMM*%
%LPD*%
G01*
G04 APERTURE LIST*
%TA.AperFunction,ComponentPad*%
%ADD10O,1.600000X1.600000*%
%TD*%
%TA.AperFunction,ComponentPad*%
%ADD11R,1.600000X1.600000*%
%TD*%
%TA.AperFunction,ComponentPad*%
%ADD12C,1.007000*%
%TD*%
%TA.AperFunction,ComponentPad*%
%ADD13R,1.350000X1.350000*%
%TD*%
%TA.AperFunction,ComponentPad*%
%ADD14C,1.350000*%
%TD*%
%TA.AperFunction,ComponentPad*%
%ADD15R,1.650000X1.650000*%
%TD*%
%TA.AperFunction,ComponentPad*%
%ADD16C,1.650000*%
%TD*%
%TA.AperFunction,ComponentPad*%
%ADD17O,3.000000X6.000000*%
%TD*%
%TA.AperFunction,SMDPad,CuDef*%
%ADD18R,3.500000X1.500000*%
%TD*%
%TA.AperFunction,ComponentPad*%
%ADD19C,0.700000*%
%TD*%
%TA.AperFunction,ComponentPad*%
%ADD20O,2.400000X0.900000*%
%TD*%
%TA.AperFunction,ComponentPad*%
%ADD21O,1.700000X0.900000*%
%TD*%
%TA.AperFunction,ComponentPad*%
%ADD22R,1.700000X1.700000*%
%TD*%
%TA.AperFunction,ComponentPad*%
%ADD23O,1.700000X1.700000*%
%TD*%
%TA.AperFunction,ViaPad*%
%ADD24C,0.800000*%
%TD*%
%TA.AperFunction,Conductor*%
%ADD25C,0.200000*%
%TD*%
%TA.AperFunction,Conductor*%
%ADD26C,0.250000*%
%TD*%
%TA.AperFunction,Conductor*%
%ADD27C,0.500000*%
%TD*%
G04 APERTURE END LIST*
D10*
%TO.P,U2,28,PC5*%
%TO.N,MCU_SDA*%
X103520000Y-104580000D03*
%TO.P,U2,27,PC4*%
%TO.N,MCU_SCL*%
X106060000Y-104580000D03*
%TO.P,U2,26,PC3*%
%TO.N,unconnected-(U2-PC3-Pad26)*%
X108600000Y-104580000D03*
%TO.P,U2,25,PC2*%
%TO.N,unconnected-(U2-PC2-Pad25)*%
X111140000Y-104580000D03*
%TO.P,U2,24,PC1*%
%TO.N,unconnected-(U2-PC1-Pad24)*%
X113680000Y-104580000D03*
%TO.P,U2,23,PC0*%
%TO.N,unconnected-(U2-PC0-Pad23)*%
X116220000Y-104580000D03*
%TO.P,U2,22,GND*%
%TO.N,GND*%
X118760000Y-104580000D03*
%TO.P,U2,21,AREF*%
%TO.N,unconnected-(U2-AREF-Pad21)*%
X121300000Y-104580000D03*
%TO.P,U2,20,AVCC*%
%TO.N,USB_VBUS*%
X123840000Y-104580000D03*
%TO.P,U2,19,PB5*%
%TO.N,unconnected-(U2-PB5-Pad19)*%
X126380000Y-104580000D03*
%TO.P,U2,18,PB4*%
%TO.N,unconnected-(U2-PB4-Pad18)*%
X128920000Y-104580000D03*
%TO.P,U2,17,PB3*%
%TO.N,unconnected-(U2-PB3-Pad17)*%
X131460000Y-104580000D03*
%TO.P,U2,16,PB2*%
%TO.N,unconnected-(U2-PB2-Pad16)*%
X134000000Y-104580000D03*
%TO.P,U2,15,PB1*%
%TO.N,unconnected-(U2-PB1-Pad15)*%
X136540000Y-104580000D03*
%TO.P,U2,14,PB0*%
%TO.N,unconnected-(U2-PB0-Pad14)*%
X136540000Y-112200000D03*
%TO.P,U2,13,PD7*%
%TO.N,unconnected-(U2-PD7-Pad13)*%
X134000000Y-112200000D03*
%TO.P,U2,12,PD6*%
%TO.N,unconnected-(U2-PD6-Pad12)*%
X131460000Y-112200000D03*
%TO.P,U2,11,PD5*%
%TO.N,PD5*%
X128920000Y-112200000D03*
%TO.P,U2,10,XTAL2/PB7*%
%TO.N,Net-(U2-XTAL2{slash}PB7)*%
X126380000Y-112200000D03*
%TO.P,U2,9,XTAL1/PB6*%
%TO.N,Net-(U2-XTAL1{slash}PB6)*%
X123840000Y-112200000D03*
%TO.P,U2,8,GND*%
%TO.N,GND*%
X121300000Y-112200000D03*
%TO.P,U2,7,VCC*%
%TO.N,USB_VBUS*%
X118760000Y-112200000D03*
%TO.P,U2,6,PD4*%
%TO.N,PD4*%
X116220000Y-112200000D03*
%TO.P,U2,5,PD3*%
%TO.N,unconnected-(U2-PD3-Pad5)*%
X113680000Y-112200000D03*
%TO.P,U2,4,PD2*%
%TO.N,PD2*%
X111140000Y-112200000D03*
%TO.P,U2,3,PD1*%
%TO.N,FT232_TXD*%
X108600000Y-112200000D03*
%TO.P,U2,2,PD0*%
%TO.N,FT232_RXD*%
X106060000Y-112200000D03*
D11*
%TO.P,U2,1,~{RESET}/PC6*%
%TO.N,Net-(U2-~{RESET}{slash}PC6)*%
X103520000Y-112200000D03*
%TD*%
D12*
%TO.P,Y2,1*%
%TO.N,Net-(U2-XTAL2{slash}PB7)*%
X123320000Y-96325000D03*
%TO.P,Y2,2*%
%TO.N,Net-(U2-XTAL1{slash}PB6)*%
X118440000Y-96325000D03*
%TD*%
D13*
%TO.P,U3,1,VOUT*%
%TO.N,VCC_3V3*%
X131460000Y-60600000D03*
D14*
%TO.P,U3,2,GND*%
%TO.N,GND*%
X128920000Y-60600000D03*
%TO.P,U3,3,VIN*%
%TO.N,USB_VBUS*%
X126380000Y-60600000D03*
%TD*%
D15*
%TO.P,MT1,1*%
%TO.N,PD2*%
X157120000Y-74600000D03*
D16*
%TO.P,MT1,2*%
%TO.N,GND*%
X152120000Y-74600000D03*
%TO.P,MT1,A,A*%
%TO.N,PD4*%
X157120000Y-60100000D03*
%TO.P,MT1,B,B*%
%TO.N,PD5*%
X152120000Y-60100000D03*
%TO.P,MT1,COM,COM*%
%TO.N,GND*%
X154620000Y-60100000D03*
D17*
%TO.P,MT1,S1,SHIELD*%
X160320000Y-67600000D03*
%TO.P,MT1,S2,SHIELD*%
X148920000Y-67600000D03*
%TD*%
D18*
%TO.P,J3,G4*%
%TO.N,GND*%
X175120000Y-84700000D03*
%TO.P,J3,G3*%
X175120000Y-90100000D03*
%TD*%
D19*
%TO.P,J1,A1,GND*%
%TO.N,GND*%
X103270000Y-62750000D03*
%TO.P,J1,A4,VBUS*%
%TO.N,USB_VBUS*%
X103270000Y-63600000D03*
%TO.P,J1,A5,CC1*%
%TO.N,Net-(J1-CC1)*%
X103270000Y-64450000D03*
%TO.P,J1,A6,D+*%
%TO.N,USB_D+*%
X103270000Y-65300000D03*
%TO.P,J1,A7,D-*%
%TO.N,USB_D-*%
X103270000Y-66150000D03*
%TO.P,J1,A8,SBU1*%
%TO.N,unconnected-(J1-SBU1-PadA8)*%
X103270000Y-67000000D03*
%TO.P,J1,A9,VBUS*%
%TO.N,USB_VBUS*%
X103270000Y-67850000D03*
%TO.P,J1,A12,GND*%
%TO.N,GND*%
X103270000Y-68700000D03*
%TO.P,J1,B1,GND*%
X101920000Y-68700000D03*
%TO.P,J1,B4,VBUS*%
%TO.N,USB_VBUS*%
X101920000Y-67850000D03*
%TO.P,J1,B5,CC2*%
%TO.N,Net-(J1-CC2)*%
X101920000Y-67000000D03*
%TO.P,J1,B6,D+*%
%TO.N,USB_D+*%
X101920000Y-66150000D03*
%TO.P,J1,B7,D-*%
%TO.N,USB_D-*%
X101920000Y-65300000D03*
%TO.P,J1,B8,SBU2*%
%TO.N,unconnected-(J1-SBU2-PadB8)*%
X101920000Y-64450000D03*
%TO.P,J1,B9,VBUS*%
%TO.N,USB_VBUS*%
X101920000Y-63600000D03*
%TO.P,J1,B12,GND*%
%TO.N,GND*%
X101920000Y-62750000D03*
D20*
%TO.P,J1,S1,SHIELD*%
X102290000Y-61400000D03*
D21*
X98910000Y-61400000D03*
D20*
X102290000Y-70050000D03*
D21*
X98910000Y-70050000D03*
%TD*%
D22*
%TO.P,J5,1,Pin_1*%
%TO.N,VCC_3V3*%
X151040000Y-101600000D03*
D23*
%TO.P,J5,2,Pin_2*%
%TO.N,GND*%
X153580000Y-101600000D03*
%TO.P,J5,3,Pin_3*%
%TO.N,MCU_SCL*%
X156120000Y-101600000D03*
%TO.P,J5,4,Pin_4*%
%TO.N,MCU_SDA*%
X158660000Y-101600000D03*
%TD*%
D18*
%TO.P,J4,G4*%
%TO.N,GND*%
X175120000Y-102500000D03*
%TO.P,J4,G3*%
X175120000Y-107900000D03*
%TD*%
%TO.P,J2,G3*%
%TO.N,GND*%
X175120000Y-72500000D03*
%TO.P,J2,G4*%
X175120000Y-67100000D03*
%TD*%
D24*
%TO.N,GND*%
X161800000Y-91000000D03*
X105000000Y-69200000D03*
X105200000Y-61200000D03*
X122000000Y-110200000D03*
X126600000Y-69600000D03*
X123400000Y-70400000D03*
X123600000Y-73800000D03*
X125000000Y-63800000D03*
X135200000Y-65400000D03*
X127800000Y-92200000D03*
X126400000Y-90400000D03*
X114000000Y-91800000D03*
X115400000Y-90600000D03*
X109200000Y-72800000D03*
X115000000Y-72800000D03*
X115000000Y-61200000D03*
X109400000Y-61400000D03*
X102000000Y-72800000D03*
X98600000Y-72400000D03*
X102600000Y-59600000D03*
X98800000Y-59600000D03*
X171200000Y-116000000D03*
X164600000Y-116000000D03*
X156000000Y-115800000D03*
X118400000Y-116400000D03*
X126800000Y-115800000D03*
X176320000Y-65600000D03*
X175320000Y-65600000D03*
X173920000Y-65600000D03*
X173920000Y-73800000D03*
X175320000Y-73800000D03*
X176520000Y-73800000D03*
X174120000Y-83200000D03*
X175520000Y-83200000D03*
X176520000Y-83200000D03*
X174320000Y-91400000D03*
X175720000Y-91400000D03*
X176720000Y-91400000D03*
X176206920Y-109153803D03*
X175120000Y-109200000D03*
X173920000Y-109200000D03*
X174120000Y-101000000D03*
X174920000Y-101000000D03*
X175720000Y-101000000D03*
X176520000Y-101000000D03*
X148120000Y-98200000D03*
X147920000Y-94200000D03*
X150520000Y-83800000D03*
X153720000Y-83800000D03*
X136120000Y-70400000D03*
X132320000Y-70400000D03*
X122320000Y-86600000D03*
%TO.N,PD4*%
X157120000Y-81400000D03*
X144720000Y-81400000D03*
X116320000Y-107400000D03*
%TO.N,VCC_3V3*%
X149920000Y-87000000D03*
X138920000Y-60800000D03*
%TO.N,FT232_RXD*%
X125520000Y-71200000D03*
%TO.N,FT232_TXD*%
X128520000Y-78800000D03*
X111120000Y-99200000D03*
%TO.N,PD2*%
X159120000Y-77400000D03*
X141120000Y-92800000D03*
%TO.N,FT232_RXD*%
X107720000Y-91600000D03*
%TO.N,PD5*%
X142720000Y-61600000D03*
X147520000Y-78600000D03*
%TO.N,VCC_3V3*%
X99120000Y-76200000D03*
%TO.N,USB_VBUS*%
X117920000Y-71800000D03*
%TD*%
D25*
%TO.N,USB_D+*%
X103200760Y-65300000D02*
X102350761Y-66150000D01*
X102350761Y-66150000D02*
X101920000Y-66150000D01*
X103270000Y-65300000D02*
X103200760Y-65300000D01*
D26*
%TO.N,MCU_SDA*%
X103660000Y-104720000D02*
X103660000Y-105540000D01*
X103520000Y-104580000D02*
X103660000Y-104720000D01*
X103660000Y-105540000D02*
X104720000Y-106600000D01*
%TO.N,MCU_SCL*%
X155920000Y-106200000D02*
X156120000Y-106000000D01*
X149920000Y-106200000D02*
X155920000Y-106200000D01*
X145520000Y-101800000D02*
X149920000Y-106200000D01*
X107520000Y-101800000D02*
X145520000Y-101800000D01*
X106060000Y-103260000D02*
X107520000Y-101800000D01*
X106060000Y-104580000D02*
X106060000Y-103260000D01*
X156120000Y-106000000D02*
X156120000Y-101600000D01*
%TO.N,PD4*%
X144720000Y-81400000D02*
X157120000Y-81400000D01*
%TO.N,MCU_SDA*%
X157270000Y-108650000D02*
X158660000Y-107260000D01*
X149533604Y-108650000D02*
X157270000Y-108650000D01*
X109920000Y-102600000D02*
X143483604Y-102600000D01*
X158660000Y-107260000D02*
X158660000Y-101600000D01*
X109920000Y-105600000D02*
X109920000Y-102600000D01*
X143483604Y-102600000D02*
X149533604Y-108650000D01*
X104720000Y-106600000D02*
X108920000Y-106600000D01*
X108920000Y-106600000D02*
X109920000Y-105600000D01*
%TO.N,PD4*%
X116220000Y-107500000D02*
X116320000Y-107400000D01*
X116220000Y-112200000D02*
X116220000Y-107500000D01*
%TO.N,USB_VBUS*%
X118760000Y-109660000D02*
X118760000Y-112200000D01*
X123840000Y-104580000D02*
X118760000Y-109660000D01*
%TO.N,VCC_3V3*%
X138920000Y-78200000D02*
X138920000Y-60800000D01*
X147720000Y-87000000D02*
X138920000Y-78200000D01*
X149920000Y-87000000D02*
X147720000Y-87000000D01*
%TO.N,PD2*%
X159120000Y-92800000D02*
X159120000Y-77400000D01*
X141120000Y-92800000D02*
X159120000Y-92800000D01*
%TO.N,PD5*%
X142720000Y-76600000D02*
X142720000Y-61600000D01*
X144720000Y-78600000D02*
X142720000Y-76600000D01*
X147520000Y-78600000D02*
X144720000Y-78600000D01*
%TO.N,FT232_RXD*%
X125520000Y-73800000D02*
X107720000Y-91600000D01*
X125520000Y-71200000D02*
X125520000Y-73800000D01*
%TO.N,FT232_TXD*%
X129320000Y-78000000D02*
X128520000Y-78800000D01*
X136520000Y-78000000D02*
X129320000Y-78000000D01*
X138520000Y-80000000D02*
X136520000Y-78000000D01*
X138520000Y-88200000D02*
X138520000Y-80000000D01*
X127520000Y-99200000D02*
X138520000Y-88200000D01*
X111120000Y-99200000D02*
X127520000Y-99200000D01*
D27*
%TO.N,VCC_3V3*%
X131120000Y-58600000D02*
X131460000Y-58940000D01*
X115120000Y-64800000D02*
X115120000Y-63000000D01*
X119520000Y-58600000D02*
X131120000Y-58600000D01*
X103720000Y-76200000D02*
X115120000Y-64800000D01*
X115120000Y-63000000D02*
X119520000Y-58600000D01*
X131460000Y-58940000D02*
X131460000Y-60600000D01*
X99120000Y-76200000D02*
X103720000Y-76200000D01*
D26*
%TO.N,Net-(U2-XTAL2{slash}PB7)*%
X101720000Y-94800000D02*
X121795000Y-94800000D01*
X121795000Y-94800000D02*
X123320000Y-96325000D01*
X98520000Y-98000000D02*
X101720000Y-94800000D01*
X123380000Y-115200000D02*
X100120000Y-115200000D01*
X100120000Y-115200000D02*
X98520000Y-113600000D01*
X98520000Y-113600000D02*
X98520000Y-98000000D01*
X126380000Y-112200000D02*
X123380000Y-115200000D01*
%TO.N,Net-(U2-XTAL1{slash}PB6)*%
X100520000Y-113000000D02*
X100520000Y-98400000D01*
X102595000Y-96325000D02*
X118440000Y-96325000D01*
X101520000Y-114000000D02*
X100520000Y-113000000D01*
X123840000Y-113240000D02*
X123080000Y-114000000D01*
X123840000Y-112200000D02*
X123840000Y-113240000D01*
X123080000Y-114000000D02*
X101520000Y-114000000D01*
X100520000Y-98400000D02*
X102595000Y-96325000D01*
%TO.N,USB_VBUS*%
X119520000Y-60800000D02*
X119720000Y-60600000D01*
X119720000Y-60600000D02*
X126380000Y-60600000D01*
X119520000Y-70200000D02*
X119520000Y-60800000D01*
X117920000Y-71800000D02*
X119520000Y-70200000D01*
X100920000Y-63600000D02*
X101920000Y-63600000D01*
X101170000Y-67850000D02*
X99720000Y-66400000D01*
X99720000Y-66400000D02*
X99720000Y-64800000D01*
X99720000Y-64800000D02*
X100920000Y-63600000D01*
X101920000Y-67850000D02*
X101170000Y-67850000D01*
X101920000Y-67850000D02*
X103270000Y-67850000D01*
%TD*%
%TA.AperFunction,Conductor*%
%TO.N,GND*%
G36*
X128337229Y-59370185D02*
G01*
X128382984Y-59422989D01*
X128392928Y-59492147D01*
X128363903Y-59555703D01*
X128335467Y-59579927D01*
X128284832Y-59611278D01*
X128284831Y-59611279D01*
X128831768Y-60158215D01*
X128785862Y-60165135D01*
X128663643Y-60223993D01*
X128564202Y-60316260D01*
X128496375Y-60433740D01*
X128478500Y-60512052D01*
X127928987Y-59962539D01*
X127916712Y-59978794D01*
X127819651Y-60173721D01*
X127769525Y-60349892D01*
X127732245Y-60408985D01*
X127668936Y-60438542D01*
X127599696Y-60429180D01*
X127546510Y-60383870D01*
X127530993Y-60349891D01*
X127480818Y-60173542D01*
X127383712Y-59978528D01*
X127252426Y-59804676D01*
X127091432Y-59657911D01*
X126965482Y-59579927D01*
X126918846Y-59527899D01*
X126907742Y-59458918D01*
X126935695Y-59394883D01*
X126993830Y-59356127D01*
X127030759Y-59350500D01*
X128270190Y-59350500D01*
X128337229Y-59370185D01*
G37*
%TD.AperFunction*%
%TA.AperFunction,Conductor*%
G36*
X130411749Y-59370185D02*
G01*
X130457504Y-59422989D01*
X130467448Y-59492147D01*
X130438423Y-59555703D01*
X130431255Y-59562375D01*
X130341204Y-59682668D01*
X130290910Y-59817515D01*
X130290909Y-59817517D01*
X130284500Y-59877127D01*
X130284500Y-59880448D01*
X130284500Y-59880449D01*
X130284500Y-60213190D01*
X130264815Y-60280229D01*
X130212011Y-60325984D01*
X130142853Y-60335928D01*
X130079297Y-60306903D01*
X130041523Y-60248125D01*
X130041234Y-60247124D01*
X130020349Y-60173722D01*
X129923287Y-59978794D01*
X129911011Y-59962539D01*
X129364449Y-60509101D01*
X129363673Y-60498735D01*
X129314113Y-60372459D01*
X129229535Y-60266401D01*
X129117453Y-60189984D01*
X129009700Y-60156747D01*
X129555167Y-59611279D01*
X129504531Y-59579927D01*
X129457896Y-59527899D01*
X129446792Y-59458917D01*
X129474745Y-59394883D01*
X129532880Y-59356127D01*
X129569809Y-59350500D01*
X130344710Y-59350500D01*
X130411749Y-59370185D01*
G37*
%TD.AperFunction*%
%TA.AperFunction,Conductor*%
G36*
X119535124Y-57612794D02*
G01*
X119559553Y-57601716D01*
X119576878Y-57600500D01*
X131141637Y-57600500D01*
X131172155Y-57609461D01*
X131194346Y-57600916D01*
X131204500Y-57600500D01*
X176995500Y-57600500D01*
X177062539Y-57620185D01*
X177108294Y-57672989D01*
X177119500Y-57724500D01*
X177119500Y-65733635D01*
X177099815Y-65800674D01*
X177047011Y-65846429D01*
X176982246Y-65856925D01*
X176921117Y-65850353D01*
X176914518Y-65850000D01*
X175370000Y-65850000D01*
X175370000Y-68350000D01*
X176914518Y-68350000D01*
X176921130Y-68349645D01*
X176982244Y-68343075D01*
X177051004Y-68355480D01*
X177102141Y-68403090D01*
X177119500Y-68466364D01*
X177119500Y-71133635D01*
X177099815Y-71200674D01*
X177047011Y-71246429D01*
X176982246Y-71256925D01*
X176921117Y-71250353D01*
X176914518Y-71250000D01*
X175370000Y-71250000D01*
X175370000Y-73750000D01*
X176914518Y-73750000D01*
X176921130Y-73749645D01*
X176982244Y-73743075D01*
X177051004Y-73755480D01*
X177102141Y-73803090D01*
X177119500Y-73866364D01*
X177119500Y-83333635D01*
X177099815Y-83400674D01*
X177047011Y-83446429D01*
X176982246Y-83456925D01*
X176921117Y-83450353D01*
X176914518Y-83450000D01*
X175370000Y-83450000D01*
X175370000Y-85950000D01*
X176914518Y-85950000D01*
X176921130Y-85949645D01*
X176982244Y-85943075D01*
X177051004Y-85955480D01*
X177102141Y-86003090D01*
X177119500Y-86066364D01*
X177119500Y-88733635D01*
X177099815Y-88800674D01*
X177047011Y-88846429D01*
X176982246Y-88856925D01*
X176921117Y-88850353D01*
X176914518Y-88850000D01*
X175370000Y-88850000D01*
X175370000Y-91350000D01*
X176914518Y-91350000D01*
X176921130Y-91349645D01*
X176982244Y-91343075D01*
X177051004Y-91355480D01*
X177102141Y-91403090D01*
X177119500Y-91466364D01*
X177119500Y-101133635D01*
X177099815Y-101200674D01*
X177047011Y-101246429D01*
X176982246Y-101256925D01*
X176921117Y-101250353D01*
X176914518Y-101250000D01*
X175370000Y-101250000D01*
X175370000Y-103750000D01*
X176914518Y-103750000D01*
X176921130Y-103749645D01*
X176982244Y-103743075D01*
X177051004Y-103755480D01*
X177102141Y-103803090D01*
X177119500Y-103866364D01*
X177119500Y-106533635D01*
X177099815Y-106600674D01*
X177047011Y-106646429D01*
X176982246Y-106656925D01*
X176921117Y-106650353D01*
X176914518Y-106650000D01*
X175370000Y-106650000D01*
X175370000Y-109150000D01*
X176914518Y-109150000D01*
X176921130Y-109149645D01*
X176982244Y-109143075D01*
X177051004Y-109155480D01*
X177102141Y-109203090D01*
X177119500Y-109266364D01*
X177119500Y-117475500D01*
X177099815Y-117542539D01*
X177047011Y-117588294D01*
X176995500Y-117599500D01*
X97244500Y-117599500D01*
X97177461Y-117579815D01*
X97131706Y-117527011D01*
X97120500Y-117475500D01*
X97120500Y-97980194D01*
X97889840Y-97980194D01*
X97893950Y-98023673D01*
X97894500Y-98035343D01*
X97894500Y-113517256D01*
X97892235Y-113537766D01*
X97894439Y-113607872D01*
X97894500Y-113611767D01*
X97894500Y-113639350D01*
X97894988Y-113643219D01*
X97894989Y-113643225D01*
X97895004Y-113643343D01*
X97895918Y-113654967D01*
X97897290Y-113698626D01*
X97902879Y-113717860D01*
X97906825Y-113736916D01*
X97909335Y-113756792D01*
X97925414Y-113797404D01*
X97929197Y-113808451D01*
X97941382Y-113850391D01*
X97951580Y-113867635D01*
X97960136Y-113885100D01*
X97967514Y-113903732D01*
X97967515Y-113903733D01*
X97993180Y-113939059D01*
X97999593Y-113948822D01*
X98021826Y-113986416D01*
X98021829Y-113986419D01*
X98021830Y-113986420D01*
X98035995Y-114000585D01*
X98048627Y-114015375D01*
X98060406Y-114031587D01*
X98094058Y-114059426D01*
X98102699Y-114067289D01*
X99619197Y-115583787D01*
X99632098Y-115599889D01*
X99634212Y-115601874D01*
X99634214Y-115601877D01*
X99681561Y-115646339D01*
X99683240Y-115647916D01*
X99686036Y-115650626D01*
X99705530Y-115670120D01*
X99708615Y-115672513D01*
X99708701Y-115672580D01*
X99717573Y-115680158D01*
X99749418Y-115710062D01*
X99766974Y-115719714D01*
X99783231Y-115730392D01*
X99799064Y-115742674D01*
X99815185Y-115749649D01*
X99839156Y-115760023D01*
X99849643Y-115765160D01*
X99887908Y-115786197D01*
X99907316Y-115791180D01*
X99925710Y-115797478D01*
X99944105Y-115805438D01*
X99987254Y-115812271D01*
X99998680Y-115814638D01*
X100014222Y-115818629D01*
X100040980Y-115825500D01*
X100040981Y-115825500D01*
X100061016Y-115825500D01*
X100080413Y-115827026D01*
X100100196Y-115830160D01*
X100143674Y-115826050D01*
X100155344Y-115825500D01*
X123297256Y-115825500D01*
X123317762Y-115827764D01*
X123320665Y-115827672D01*
X123320667Y-115827673D01*
X123387872Y-115825561D01*
X123391768Y-115825500D01*
X123415448Y-115825500D01*
X123419350Y-115825500D01*
X123423313Y-115824999D01*
X123434962Y-115824080D01*
X123478627Y-115822709D01*
X123497859Y-115817120D01*
X123516918Y-115813174D01*
X123524091Y-115812268D01*
X123536792Y-115810664D01*
X123577407Y-115794582D01*
X123588444Y-115790803D01*
X123630390Y-115778618D01*
X123647629Y-115768422D01*
X123665102Y-115759862D01*
X123683732Y-115752486D01*
X123719064Y-115726814D01*
X123728830Y-115720400D01*
X123766418Y-115698171D01*
X123766417Y-115698171D01*
X123766420Y-115698170D01*
X123780585Y-115684004D01*
X123795373Y-115671373D01*
X123811587Y-115659594D01*
X123839438Y-115625926D01*
X123847279Y-115617309D01*
X125965178Y-113499410D01*
X126026499Y-113465927D01*
X126084946Y-113467317D01*
X126153308Y-113485635D01*
X126380000Y-113505468D01*
X126606692Y-113485635D01*
X126826496Y-113426739D01*
X127032734Y-113330568D01*
X127219139Y-113200047D01*
X127380047Y-113039139D01*
X127510568Y-112852734D01*
X127537618Y-112794724D01*
X127583790Y-112742285D01*
X127650983Y-112723133D01*
X127717865Y-112743348D01*
X127762382Y-112794725D01*
X127789431Y-112852733D01*
X127919953Y-113039140D01*
X128080859Y-113200046D01*
X128267264Y-113330567D01*
X128267265Y-113330567D01*
X128267266Y-113330568D01*
X128473504Y-113426739D01*
X128693308Y-113485635D01*
X128920000Y-113505468D01*
X129146692Y-113485635D01*
X129366496Y-113426739D01*
X129572734Y-113330568D01*
X129759139Y-113200047D01*
X129920047Y-113039139D01*
X130050568Y-112852734D01*
X130077619Y-112794721D01*
X130123788Y-112742286D01*
X130190981Y-112723133D01*
X130257862Y-112743348D01*
X130302380Y-112794722D01*
X130329432Y-112852733D01*
X130329433Y-112852736D01*
X130459953Y-113039140D01*
X130620859Y-113200046D01*
X130807264Y-113330567D01*
X130807265Y-113330567D01*
X130807266Y-113330568D01*
X131013504Y-113426739D01*
X131233308Y-113485635D01*
X131384436Y-113498856D01*
X131459999Y-113505468D01*
X131459999Y-113505467D01*
X131460000Y-113505468D01*
X131686692Y-113485635D01*
X131906496Y-113426739D01*
X132112734Y-113330568D01*
X132299139Y-113200047D01*
X132460047Y-113039139D01*
X132590568Y-112852734D01*
X132617618Y-112794724D01*
X132663790Y-112742285D01*
X132730983Y-112723133D01*
X132797865Y-112743348D01*
X132842382Y-112794725D01*
X132869431Y-112852733D01*
X132999953Y-113039140D01*
X133160859Y-113200046D01*
X133347264Y-113330567D01*
X133347265Y-113330567D01*
X133347266Y-113330568D01*
X133553504Y-113426739D01*
X133773308Y-113485635D01*
X134000000Y-113505468D01*
X134226692Y-113485635D01*
X134446496Y-113426739D01*
X134652734Y-113330568D01*
X134839139Y-113200047D01*
X135000047Y-113039139D01*
X135130568Y-112852734D01*
X135157618Y-112794724D01*
X135203790Y-112742285D01*
X135270983Y-112723133D01*
X135337865Y-112743348D01*
X135382382Y-112794725D01*
X135409431Y-112852733D01*
X135539953Y-113039140D01*
X135700859Y-113200046D01*
X135887264Y-113330567D01*
X135887265Y-113330567D01*
X135887266Y-113330568D01*
X136093504Y-113426739D01*
X136313308Y-113485635D01*
X136540000Y-113505468D01*
X136766692Y-113485635D01*
X136986496Y-113426739D01*
X137192734Y-113330568D01*
X137379139Y-113200047D01*
X137540047Y-113039139D01*
X137670568Y-112852734D01*
X137766739Y-112646496D01*
X137825635Y-112426692D01*
X137845468Y-112200000D01*
X137825635Y-111973308D01*
X137766739Y-111753504D01*
X137670568Y-111547266D01*
X137592856Y-111436280D01*
X137540046Y-111360859D01*
X137379140Y-111199953D01*
X137192735Y-111069432D01*
X136986497Y-110973261D01*
X136766689Y-110914364D01*
X136540000Y-110894531D01*
X136313310Y-110914364D01*
X136093502Y-110973261D01*
X135887264Y-111069432D01*
X135700859Y-111199953D01*
X135539953Y-111360859D01*
X135409433Y-111547263D01*
X135382382Y-111605275D01*
X135336209Y-111657714D01*
X135269015Y-111676865D01*
X135202134Y-111656649D01*
X135157618Y-111605275D01*
X135130687Y-111547522D01*
X135130568Y-111547266D01*
X135130566Y-111547263D01*
X135000046Y-111360859D01*
X134839140Y-111199953D01*
X134652735Y-111069432D01*
X134446497Y-110973261D01*
X134226689Y-110914364D01*
X134000000Y-110894531D01*
X133773310Y-110914364D01*
X133553502Y-110973261D01*
X133347264Y-111069432D01*
X133160859Y-111199953D01*
X132999953Y-111360859D01*
X132869433Y-111547263D01*
X132842382Y-111605275D01*
X132796209Y-111657714D01*
X132729015Y-111676865D01*
X132662134Y-111656649D01*
X132617618Y-111605275D01*
X132590687Y-111547522D01*
X132590568Y-111547266D01*
X132590566Y-111547263D01*
X132460046Y-111360859D01*
X132299140Y-111199953D01*
X132112735Y-111069432D01*
X131906497Y-110973261D01*
X131686689Y-110914364D01*
X131459999Y-110894531D01*
X131233310Y-110914364D01*
X131013502Y-110973261D01*
X130807264Y-111069432D01*
X130620859Y-111199953D01*
X130459953Y-111360859D01*
X130329433Y-111547263D01*
X130302382Y-111605275D01*
X130256209Y-111657714D01*
X130189015Y-111676865D01*
X130122134Y-111656649D01*
X130077618Y-111605275D01*
X130050687Y-111547522D01*
X130050568Y-111547266D01*
X130050566Y-111547263D01*
X129920046Y-111360859D01*
X129759140Y-111199953D01*
X129572735Y-111069432D01*
X129366497Y-110973261D01*
X129146689Y-110914364D01*
X128920000Y-110894531D01*
X128693310Y-110914364D01*
X128473502Y-110973261D01*
X128267264Y-111069432D01*
X128080859Y-111199953D01*
X127919953Y-111360859D01*
X127789433Y-111547263D01*
X127762382Y-111605275D01*
X127716209Y-111657714D01*
X127649015Y-111676865D01*
X127582134Y-111656649D01*
X127537618Y-111605275D01*
X127510687Y-111547522D01*
X127510568Y-111547266D01*
X127510566Y-111547263D01*
X127380046Y-111360859D01*
X127219140Y-111199953D01*
X127032735Y-111069432D01*
X126826497Y-110973261D01*
X126606689Y-110914364D01*
X126380000Y-110894531D01*
X126153310Y-110914364D01*
X125933502Y-110973261D01*
X125727264Y-111069432D01*
X125540859Y-111199953D01*
X125379953Y-111360859D01*
X125249433Y-111547263D01*
X125222382Y-111605275D01*
X125176209Y-111657714D01*
X125109015Y-111676865D01*
X125042134Y-111656649D01*
X124997618Y-111605275D01*
X124970687Y-111547522D01*
X124970568Y-111547266D01*
X124970566Y-111547263D01*
X124840046Y-111360859D01*
X124679140Y-111199953D01*
X124492735Y-111069432D01*
X124286497Y-110973261D01*
X124066689Y-110914364D01*
X123840000Y-110894531D01*
X123613310Y-110914364D01*
X123393502Y-110973261D01*
X123187264Y-111069432D01*
X123000859Y-111199953D01*
X122839953Y-111360859D01*
X122709430Y-111547267D01*
X122682105Y-111605866D01*
X122635932Y-111658305D01*
X122568739Y-111677456D01*
X122501858Y-111657239D01*
X122457342Y-111605865D01*
X122430134Y-111547519D01*
X122299658Y-111361180D01*
X122138819Y-111200341D01*
X121952480Y-111069865D01*
X121746326Y-110973733D01*
X121550000Y-110921126D01*
X121550000Y-111884314D01*
X121538045Y-111872359D01*
X121425148Y-111814835D01*
X121331481Y-111800000D01*
X121268519Y-111800000D01*
X121174852Y-111814835D01*
X121061955Y-111872359D01*
X121050000Y-111884314D01*
X121050000Y-110921127D01*
X121049999Y-110921126D01*
X120853673Y-110973733D01*
X120647519Y-111069865D01*
X120461180Y-111200341D01*
X120300341Y-111361180D01*
X120169863Y-111547522D01*
X120142656Y-111605866D01*
X120096483Y-111658305D01*
X120029290Y-111677456D01*
X119962409Y-111657239D01*
X119917893Y-111605865D01*
X119917618Y-111605276D01*
X119890568Y-111547266D01*
X119812856Y-111436280D01*
X119760046Y-111360859D01*
X119599140Y-111199953D01*
X119438377Y-111087387D01*
X119394752Y-111032811D01*
X119385500Y-110985812D01*
X119385500Y-109970452D01*
X119405185Y-109903413D01*
X119421819Y-109882771D01*
X121388967Y-107915623D01*
X123425178Y-105879411D01*
X123486499Y-105845928D01*
X123544951Y-105847319D01*
X123613308Y-105865635D01*
X123840000Y-105885468D01*
X124066692Y-105865635D01*
X124286496Y-105806739D01*
X124492734Y-105710568D01*
X124679139Y-105580047D01*
X124840047Y-105419139D01*
X124970568Y-105232734D01*
X124997618Y-105174724D01*
X125043790Y-105122285D01*
X125110983Y-105103133D01*
X125177865Y-105123348D01*
X125222382Y-105174725D01*
X125249431Y-105232733D01*
X125379953Y-105419140D01*
X125540859Y-105580046D01*
X125727264Y-105710567D01*
X125727265Y-105710567D01*
X125727266Y-105710568D01*
X125933504Y-105806739D01*
X126153308Y-105865635D01*
X126265837Y-105875480D01*
X126379999Y-105885468D01*
X126379999Y-105885467D01*
X126380000Y-105885468D01*
X126606692Y-105865635D01*
X126826496Y-105806739D01*
X127032734Y-105710568D01*
X127219139Y-105580047D01*
X127380047Y-105419139D01*
X127510568Y-105232734D01*
X127537618Y-105174724D01*
X127583790Y-105122285D01*
X127650983Y-105103133D01*
X127717865Y-105123348D01*
X127762382Y-105174725D01*
X127789431Y-105232733D01*
X127919953Y-105419140D01*
X128080859Y-105580046D01*
X128267264Y-105710567D01*
X128267265Y-105710567D01*
X128267266Y-105710568D01*
X128473504Y-105806739D01*
X128693308Y-105865635D01*
X128920000Y-105885468D01*
X129146692Y-105865635D01*
X129366496Y-105806739D01*
X129572734Y-105710568D01*
X129759139Y-105580047D01*
X129920047Y-105419139D01*
X130050568Y-105232734D01*
X130077618Y-105174724D01*
X130123790Y-105122285D01*
X130190983Y-105103133D01*
X130257865Y-105123348D01*
X130302382Y-105174725D01*
X130329431Y-105232733D01*
X130459953Y-105419140D01*
X130620859Y-105580046D01*
X130807264Y-105710567D01*
X130807265Y-105710567D01*
X130807266Y-105710568D01*
X131013504Y-105806739D01*
X131233308Y-105865635D01*
X131345837Y-105875480D01*
X131459999Y-105885468D01*
X131459999Y-105885467D01*
X131460000Y-105885468D01*
X131686692Y-105865635D01*
X131906496Y-105806739D01*
X132112734Y-105710568D01*
X132299139Y-105580047D01*
X132460047Y-105419139D01*
X132590568Y-105232734D01*
X132617618Y-105174724D01*
X132663790Y-105122285D01*
X132730983Y-105103133D01*
X132797865Y-105123348D01*
X132842382Y-105174725D01*
X132869431Y-105232733D01*
X132999953Y-105419140D01*
X133160859Y-105580046D01*
X133347264Y-105710567D01*
X133347265Y-105710567D01*
X133347266Y-105710568D01*
X133553504Y-105806739D01*
X133773308Y-105865635D01*
X134000000Y-105885468D01*
X134226692Y-105865635D01*
X134446496Y-105806739D01*
X134652734Y-105710568D01*
X134839139Y-105580047D01*
X135000047Y-105419139D01*
X135130568Y-105232734D01*
X135157618Y-105174724D01*
X135203790Y-105122285D01*
X135270983Y-105103133D01*
X135337865Y-105123348D01*
X135382382Y-105174725D01*
X135409431Y-105232733D01*
X135539953Y-105419140D01*
X135700859Y-105580046D01*
X135887264Y-105710567D01*
X135887265Y-105710567D01*
X135887266Y-105710568D01*
X136093504Y-105806739D01*
X136313308Y-105865635D01*
X136540000Y-105885468D01*
X136766692Y-105865635D01*
X136986496Y-105806739D01*
X137192734Y-105710568D01*
X137379139Y-105580047D01*
X137540047Y-105419139D01*
X137670568Y-105232734D01*
X137766739Y-105026496D01*
X137825635Y-104806692D01*
X137845468Y-104580000D01*
X137825635Y-104353308D01*
X137766739Y-104133504D01*
X137670568Y-103927266D01*
X137627925Y-103866364D01*
X137540046Y-103740859D01*
X137379140Y-103579953D01*
X137195081Y-103451075D01*
X137151456Y-103396499D01*
X137144262Y-103327000D01*
X137175785Y-103264645D01*
X137236014Y-103229231D01*
X137266204Y-103225500D01*
X143173152Y-103225500D01*
X143240191Y-103245185D01*
X143260833Y-103261819D01*
X149032800Y-109033787D01*
X149045700Y-109049888D01*
X149096827Y-109097900D01*
X149099624Y-109100611D01*
X149119133Y-109120120D01*
X149122313Y-109122587D01*
X149131175Y-109130155D01*
X149163022Y-109160062D01*
X149179059Y-109168878D01*
X149180576Y-109169712D01*
X149196840Y-109180396D01*
X149208576Y-109189499D01*
X149212668Y-109192673D01*
X149236740Y-109203090D01*
X149252756Y-109210021D01*
X149263235Y-109215154D01*
X149301512Y-109236197D01*
X149320910Y-109241177D01*
X149339312Y-109247477D01*
X149357708Y-109255438D01*
X149400865Y-109262273D01*
X149412268Y-109264634D01*
X149454585Y-109275500D01*
X149474620Y-109275500D01*
X149494017Y-109277026D01*
X149513800Y-109280160D01*
X149557278Y-109276050D01*
X149568948Y-109275500D01*
X157187256Y-109275500D01*
X157207762Y-109277764D01*
X157210665Y-109277672D01*
X157210667Y-109277673D01*
X157277872Y-109275561D01*
X157281768Y-109275500D01*
X157305448Y-109275500D01*
X157309350Y-109275500D01*
X157313313Y-109274999D01*
X157324962Y-109274080D01*
X157368627Y-109272709D01*
X157387859Y-109267120D01*
X157406918Y-109263174D01*
X157414091Y-109262268D01*
X157426792Y-109260664D01*
X157467407Y-109244582D01*
X157478444Y-109240803D01*
X157520390Y-109228618D01*
X157537629Y-109218422D01*
X157555102Y-109209862D01*
X157573732Y-109202486D01*
X157609064Y-109176814D01*
X157618830Y-109170400D01*
X157644059Y-109155480D01*
X157656420Y-109148170D01*
X157670585Y-109134004D01*
X157685373Y-109121373D01*
X157701587Y-109109594D01*
X157729438Y-109075926D01*
X157737279Y-109067309D01*
X158654589Y-108150000D01*
X172870000Y-108150000D01*
X172870000Y-108694518D01*
X172870354Y-108701132D01*
X172876400Y-108757371D01*
X172926647Y-108892089D01*
X173012811Y-109007188D01*
X173127910Y-109093352D01*
X173262628Y-109143599D01*
X173318867Y-109149645D01*
X173325482Y-109150000D01*
X174870000Y-109150000D01*
X174870000Y-108150000D01*
X172870000Y-108150000D01*
X158654589Y-108150000D01*
X159043788Y-107760801D01*
X159059885Y-107747906D01*
X159061873Y-107745787D01*
X159061877Y-107745786D01*
X159107949Y-107696723D01*
X159110534Y-107694055D01*
X159130120Y-107674471D01*
X159132585Y-107671292D01*
X159140167Y-107662416D01*
X159151827Y-107650000D01*
X172870000Y-107650000D01*
X174870000Y-107650000D01*
X174870000Y-106650000D01*
X173325482Y-106650000D01*
X173318867Y-106650354D01*
X173262628Y-106656400D01*
X173127910Y-106706647D01*
X173012811Y-106792811D01*
X172926647Y-106907910D01*
X172876400Y-107042628D01*
X172870354Y-107098867D01*
X172870000Y-107105481D01*
X172870000Y-107650000D01*
X159151827Y-107650000D01*
X159170062Y-107630582D01*
X159179712Y-107613027D01*
X159190400Y-107596757D01*
X159196994Y-107588257D01*
X159202673Y-107580936D01*
X159220026Y-107540832D01*
X159225157Y-107530362D01*
X159246197Y-107492092D01*
X159251175Y-107472699D01*
X159257481Y-107454282D01*
X159259018Y-107450728D01*
X159265438Y-107435896D01*
X159272272Y-107392745D01*
X159274635Y-107381331D01*
X159285500Y-107339019D01*
X159285500Y-107318982D01*
X159287027Y-107299584D01*
X159290160Y-107279804D01*
X159286050Y-107236324D01*
X159285500Y-107224655D01*
X159285500Y-102875227D01*
X159305185Y-102808188D01*
X159338373Y-102773654D01*
X159372155Y-102750000D01*
X172870000Y-102750000D01*
X172870000Y-103294518D01*
X172870354Y-103301132D01*
X172876400Y-103357371D01*
X172926647Y-103492089D01*
X173012811Y-103607188D01*
X173127910Y-103693352D01*
X173262628Y-103743599D01*
X173318867Y-103749645D01*
X173325482Y-103750000D01*
X174870000Y-103750000D01*
X174870000Y-102750000D01*
X172870000Y-102750000D01*
X159372155Y-102750000D01*
X159531401Y-102638495D01*
X159698495Y-102471401D01*
X159834035Y-102277830D01*
X159847012Y-102250000D01*
X172870000Y-102250000D01*
X174870000Y-102250000D01*
X174870000Y-101250000D01*
X173325482Y-101250000D01*
X173318867Y-101250354D01*
X173262628Y-101256400D01*
X173127910Y-101306647D01*
X173012811Y-101392811D01*
X172926647Y-101507910D01*
X172876400Y-101642628D01*
X172870354Y-101698867D01*
X172870000Y-101705481D01*
X172870000Y-102250000D01*
X159847012Y-102250000D01*
X159933903Y-102063663D01*
X159995063Y-101835408D01*
X160015659Y-101600000D01*
X159995063Y-101364592D01*
X159933903Y-101136337D01*
X159834035Y-100922171D01*
X159698495Y-100728599D01*
X159531401Y-100561505D01*
X159337830Y-100425965D01*
X159123663Y-100326097D01*
X159062502Y-100309709D01*
X158895407Y-100264936D01*
X158659999Y-100244340D01*
X158424592Y-100264936D01*
X158196336Y-100326097D01*
X157982170Y-100425965D01*
X157788598Y-100561505D01*
X157621505Y-100728598D01*
X157491575Y-100914159D01*
X157436998Y-100957784D01*
X157367500Y-100964978D01*
X157305145Y-100933455D01*
X157288425Y-100914159D01*
X157158494Y-100728598D01*
X156991404Y-100561508D01*
X156991404Y-100561507D01*
X156991401Y-100561505D01*
X156797830Y-100425965D01*
X156583663Y-100326097D01*
X156522502Y-100309709D01*
X156355407Y-100264936D01*
X156120000Y-100244340D01*
X155884592Y-100264936D01*
X155656336Y-100326097D01*
X155442170Y-100425965D01*
X155248598Y-100561505D01*
X155081508Y-100728595D01*
X154951269Y-100914596D01*
X154896692Y-100958220D01*
X154827193Y-100965413D01*
X154764839Y-100933891D01*
X154748119Y-100914595D01*
X154618109Y-100728921D01*
X154451081Y-100561893D01*
X154257576Y-100426399D01*
X154043492Y-100326569D01*
X153830000Y-100269364D01*
X153830000Y-101164498D01*
X153722315Y-101115320D01*
X153615763Y-101100000D01*
X153544237Y-101100000D01*
X153437685Y-101115320D01*
X153330000Y-101164498D01*
X153330000Y-100269364D01*
X153329999Y-100269364D01*
X153116507Y-100326569D01*
X152902421Y-100426400D01*
X152708924Y-100561888D01*
X152586865Y-100683947D01*
X152525542Y-100717431D01*
X152455850Y-100712447D01*
X152399917Y-100670575D01*
X152383002Y-100639598D01*
X152354018Y-100561888D01*
X152333796Y-100507669D01*
X152247546Y-100392454D01*
X152132331Y-100306204D01*
X151997483Y-100255909D01*
X151937873Y-100249500D01*
X151934550Y-100249500D01*
X150145439Y-100249500D01*
X150145420Y-100249500D01*
X150142128Y-100249501D01*
X150138848Y-100249853D01*
X150138840Y-100249854D01*
X150082515Y-100255909D01*
X149947669Y-100306204D01*
X149832454Y-100392454D01*
X149746204Y-100507668D01*
X149695909Y-100642516D01*
X149691455Y-100683947D01*
X149689500Y-100702127D01*
X149689500Y-100705448D01*
X149689500Y-100705449D01*
X149689500Y-102494560D01*
X149689500Y-102494578D01*
X149689501Y-102497872D01*
X149689853Y-102501152D01*
X149689854Y-102501159D01*
X149695909Y-102557484D01*
X149720548Y-102623544D01*
X149746204Y-102692331D01*
X149832454Y-102807546D01*
X149947669Y-102893796D01*
X150082517Y-102944091D01*
X150142127Y-102950500D01*
X151937872Y-102950499D01*
X151997483Y-102944091D01*
X152132331Y-102893796D01*
X152247546Y-102807546D01*
X152333796Y-102692331D01*
X152383003Y-102560399D01*
X152424873Y-102504467D01*
X152490337Y-102480050D01*
X152558610Y-102494901D01*
X152586865Y-102516053D01*
X152708918Y-102638106D01*
X152902423Y-102773600D01*
X153116509Y-102873430D01*
X153330000Y-102930634D01*
X153330000Y-102035501D01*
X153437685Y-102084680D01*
X153544237Y-102100000D01*
X153615763Y-102100000D01*
X153722315Y-102084680D01*
X153830000Y-102035501D01*
X153830000Y-102930633D01*
X154043490Y-102873430D01*
X154257576Y-102773600D01*
X154451081Y-102638106D01*
X154618109Y-102471078D01*
X154748119Y-102285405D01*
X154802696Y-102241780D01*
X154872194Y-102234586D01*
X154934549Y-102266109D01*
X154951265Y-102285400D01*
X155081505Y-102471401D01*
X155248599Y-102638495D01*
X155420982Y-102759199D01*
X155441623Y-102773652D01*
X155485248Y-102828229D01*
X155494499Y-102875227D01*
X155494499Y-104180000D01*
X155494500Y-105450500D01*
X155474815Y-105517539D01*
X155422012Y-105563294D01*
X155370500Y-105574500D01*
X150230452Y-105574500D01*
X150163413Y-105554815D01*
X150142771Y-105538181D01*
X148083266Y-103478676D01*
X146020802Y-101416211D01*
X146007906Y-101400113D01*
X145956775Y-101352098D01*
X145953978Y-101349387D01*
X145937227Y-101332636D01*
X145934471Y-101329880D01*
X145931290Y-101327412D01*
X145922422Y-101319837D01*
X145890582Y-101289938D01*
X145873024Y-101280285D01*
X145856764Y-101269604D01*
X145840936Y-101257327D01*
X145800851Y-101239980D01*
X145790361Y-101234841D01*
X145752091Y-101213802D01*
X145732691Y-101208821D01*
X145714284Y-101202519D01*
X145695897Y-101194562D01*
X145652758Y-101187729D01*
X145641324Y-101185361D01*
X145599019Y-101174500D01*
X145578984Y-101174500D01*
X145559586Y-101172973D01*
X145552162Y-101171797D01*
X145539805Y-101169840D01*
X145539804Y-101169840D01*
X145514468Y-101172235D01*
X145496325Y-101173950D01*
X145484656Y-101174500D01*
X107602744Y-101174500D01*
X107582237Y-101172235D01*
X107512127Y-101174439D01*
X107508232Y-101174500D01*
X107480650Y-101174500D01*
X107476805Y-101174985D01*
X107476780Y-101174987D01*
X107476653Y-101175004D01*
X107465033Y-101175918D01*
X107421369Y-101177290D01*
X107402129Y-101182880D01*
X107383081Y-101186825D01*
X107363209Y-101189335D01*
X107322599Y-101205413D01*
X107311554Y-101209194D01*
X107269610Y-101221381D01*
X107252365Y-101231579D01*
X107234904Y-101240133D01*
X107216267Y-101247512D01*
X107180931Y-101273185D01*
X107171174Y-101279595D01*
X107133580Y-101301829D01*
X107119413Y-101315996D01*
X107104624Y-101328626D01*
X107088413Y-101340404D01*
X107060572Y-101374058D01*
X107052711Y-101382697D01*
X105676208Y-102759199D01*
X105660110Y-102772096D01*
X105612096Y-102823225D01*
X105609392Y-102826016D01*
X105592628Y-102842780D01*
X105592621Y-102842787D01*
X105589880Y-102845529D01*
X105587499Y-102848597D01*
X105587490Y-102848608D01*
X105587411Y-102848711D01*
X105579842Y-102857572D01*
X105549935Y-102889420D01*
X105540285Y-102906974D01*
X105529609Y-102923228D01*
X105517326Y-102939063D01*
X105499975Y-102979158D01*
X105494838Y-102989644D01*
X105473802Y-103027907D01*
X105468821Y-103047309D01*
X105462520Y-103065711D01*
X105454561Y-103084102D01*
X105447728Y-103127242D01*
X105445360Y-103138674D01*
X105434499Y-103180977D01*
X105434500Y-103201016D01*
X105432973Y-103220414D01*
X105429840Y-103240194D01*
X105433950Y-103283673D01*
X105434500Y-103295343D01*
X105434500Y-103365812D01*
X105414815Y-103432851D01*
X105381623Y-103467387D01*
X105220859Y-103579953D01*
X105059953Y-103740859D01*
X104929433Y-103927263D01*
X104902382Y-103985275D01*
X104856209Y-104037714D01*
X104789015Y-104056865D01*
X104722134Y-104036649D01*
X104677618Y-103985275D01*
X104650687Y-103927522D01*
X104650568Y-103927266D01*
X104650566Y-103927263D01*
X104520046Y-103740859D01*
X104359140Y-103579953D01*
X104172735Y-103449432D01*
X103966497Y-103353261D01*
X103746689Y-103294364D01*
X103520000Y-103274531D01*
X103293310Y-103294364D01*
X103073502Y-103353261D01*
X102867264Y-103449432D01*
X102680859Y-103579953D01*
X102519953Y-103740859D01*
X102389432Y-103927264D01*
X102293261Y-104133502D01*
X102234364Y-104353310D01*
X102214531Y-104579999D01*
X102234364Y-104806689D01*
X102293261Y-105026497D01*
X102389432Y-105232735D01*
X102519953Y-105419140D01*
X102680859Y-105580046D01*
X102867264Y-105710567D01*
X103055228Y-105798217D01*
X103103141Y-105837713D01*
X103107513Y-105843731D01*
X103107514Y-105843732D01*
X103123427Y-105865635D01*
X103133180Y-105879058D01*
X103139593Y-105888822D01*
X103161826Y-105926416D01*
X103161829Y-105926419D01*
X103161830Y-105926420D01*
X103175995Y-105940585D01*
X103188627Y-105955375D01*
X103200406Y-105971587D01*
X103234058Y-105999426D01*
X103242699Y-106007289D01*
X104219196Y-106983787D01*
X104232096Y-106999888D01*
X104283223Y-107047900D01*
X104286020Y-107050611D01*
X104305529Y-107070120D01*
X104308709Y-107072587D01*
X104317571Y-107080155D01*
X104344540Y-107105481D01*
X104349418Y-107110062D01*
X104366970Y-107119711D01*
X104383238Y-107130397D01*
X104399064Y-107142673D01*
X104439146Y-107160017D01*
X104449633Y-107165155D01*
X104487907Y-107186197D01*
X104496410Y-107188379D01*
X104507308Y-107191178D01*
X104525713Y-107197478D01*
X104544104Y-107205437D01*
X104587250Y-107212270D01*
X104598668Y-107214635D01*
X104640981Y-107225500D01*
X104661016Y-107225500D01*
X104680415Y-107227027D01*
X104700196Y-107230160D01*
X104743674Y-107226050D01*
X104755344Y-107225500D01*
X108837256Y-107225500D01*
X108857762Y-107227764D01*
X108860665Y-107227672D01*
X108860667Y-107227673D01*
X108927872Y-107225561D01*
X108931768Y-107225500D01*
X108955448Y-107225500D01*
X108959350Y-107225500D01*
X108963313Y-107224999D01*
X108974962Y-107224080D01*
X109018627Y-107222709D01*
X109037859Y-107217120D01*
X109056918Y-107213174D01*
X109064099Y-107212267D01*
X109076792Y-107210664D01*
X109117407Y-107194582D01*
X109128444Y-107190803D01*
X109170390Y-107178618D01*
X109187629Y-107168422D01*
X109205102Y-107159862D01*
X109223732Y-107152486D01*
X109259064Y-107126814D01*
X109268830Y-107120400D01*
X109306418Y-107098171D01*
X109306417Y-107098171D01*
X109306420Y-107098170D01*
X109320585Y-107084004D01*
X109335373Y-107071373D01*
X109351587Y-107059594D01*
X109379438Y-107025926D01*
X109387279Y-107017309D01*
X110303786Y-106100802D01*
X110319886Y-106087905D01*
X110321874Y-106085787D01*
X110321877Y-106085786D01*
X110367964Y-106036707D01*
X110370549Y-106034039D01*
X110390120Y-106014470D01*
X110392565Y-106011316D01*
X110400154Y-106002429D01*
X110430062Y-105970582D01*
X110439713Y-105953026D01*
X110450393Y-105936767D01*
X110462674Y-105920936D01*
X110480018Y-105880851D01*
X110485159Y-105870358D01*
X110485305Y-105870091D01*
X110499610Y-105844072D01*
X110549154Y-105794811D01*
X110617469Y-105780154D01*
X110660675Y-105791430D01*
X110693504Y-105806739D01*
X110913308Y-105865635D01*
X111025837Y-105875480D01*
X111139999Y-105885468D01*
X111139999Y-105885467D01*
X111140000Y-105885468D01*
X111366692Y-105865635D01*
X111586496Y-105806739D01*
X111792734Y-105710568D01*
X111979139Y-105580047D01*
X112140047Y-105419139D01*
X112270568Y-105232734D01*
X112297618Y-105174724D01*
X112343790Y-105122285D01*
X112410983Y-105103133D01*
X112477865Y-105123348D01*
X112522382Y-105174725D01*
X112549431Y-105232733D01*
X112679953Y-105419140D01*
X112840859Y-105580046D01*
X113027264Y-105710567D01*
X113027265Y-105710567D01*
X113027266Y-105710568D01*
X113233504Y-105806739D01*
X113453308Y-105865635D01*
X113680000Y-105885468D01*
X113906692Y-105865635D01*
X114126496Y-105806739D01*
X114332734Y-105710568D01*
X114519139Y-105580047D01*
X114680047Y-105419139D01*
X114810568Y-105232734D01*
X114837618Y-105174724D01*
X114883790Y-105122285D01*
X114950983Y-105103133D01*
X115017865Y-105123348D01*
X115062382Y-105174725D01*
X115089431Y-105232733D01*
X115219953Y-105419140D01*
X115380859Y-105580046D01*
X115567264Y-105710567D01*
X115567265Y-105710567D01*
X115567266Y-105710568D01*
X115773504Y-105806739D01*
X115993308Y-105865635D01*
X116220000Y-105885468D01*
X116446692Y-105865635D01*
X116666496Y-105806739D01*
X116872734Y-105710568D01*
X117059139Y-105580047D01*
X117220047Y-105419139D01*
X117350568Y-105232734D01*
X117377893Y-105174134D01*
X117424065Y-105121695D01*
X117491258Y-105102543D01*
X117558139Y-105122758D01*
X117602657Y-105174133D01*
X117629866Y-105232482D01*
X117760341Y-105418819D01*
X117921180Y-105579658D01*
X118107519Y-105710134D01*
X118313673Y-105806266D01*
X118509999Y-105858871D01*
X118510000Y-105858871D01*
X118510000Y-104895686D01*
X118521955Y-104907641D01*
X118634852Y-104965165D01*
X118728519Y-104980000D01*
X118791481Y-104980000D01*
X118885148Y-104965165D01*
X118998045Y-104907641D01*
X119010000Y-104895686D01*
X119010000Y-105858871D01*
X119206326Y-105806266D01*
X119412480Y-105710134D01*
X119598819Y-105579658D01*
X119759658Y-105418819D01*
X119890135Y-105232479D01*
X119917342Y-105174135D01*
X119963514Y-105121695D01*
X120030707Y-105102543D01*
X120097589Y-105122758D01*
X120142105Y-105174132D01*
X120169432Y-105232733D01*
X120169433Y-105232736D01*
X120299953Y-105419140D01*
X120460859Y-105580046D01*
X120647264Y-105710567D01*
X120647265Y-105710567D01*
X120647266Y-105710568D01*
X120853504Y-105806739D01*
X121073308Y-105865635D01*
X121185837Y-105875480D01*
X121299999Y-105885468D01*
X121299999Y-105885467D01*
X121300000Y-105885468D01*
X121311299Y-105884479D01*
X121344100Y-105881610D01*
X121412600Y-105895376D01*
X121462783Y-105943992D01*
X121478717Y-106012020D01*
X121455342Y-106077864D01*
X121442589Y-106092819D01*
X118376208Y-109159199D01*
X118360110Y-109172096D01*
X118312096Y-109223225D01*
X118309392Y-109226016D01*
X118292628Y-109242780D01*
X118292621Y-109242787D01*
X118289880Y-109245529D01*
X118287499Y-109248597D01*
X118287490Y-109248608D01*
X118287411Y-109248711D01*
X118279842Y-109257572D01*
X118249935Y-109289420D01*
X118240285Y-109306974D01*
X118229609Y-109323228D01*
X118217326Y-109339063D01*
X118199975Y-109379158D01*
X118194838Y-109389644D01*
X118173802Y-109427907D01*
X118168821Y-109447309D01*
X118162520Y-109465711D01*
X118154561Y-109484102D01*
X118147728Y-109527242D01*
X118145360Y-109538674D01*
X118134499Y-109580977D01*
X118134500Y-109601016D01*
X118132973Y-109620415D01*
X118129839Y-109640195D01*
X118133949Y-109683671D01*
X118134499Y-109695339D01*
X118134499Y-110985812D01*
X118114814Y-111052851D01*
X118081622Y-111087387D01*
X117920860Y-111199952D01*
X117759953Y-111360859D01*
X117629431Y-111547266D01*
X117602380Y-111605276D01*
X117556207Y-111657714D01*
X117489013Y-111676865D01*
X117422132Y-111656648D01*
X117377617Y-111605273D01*
X117350568Y-111547266D01*
X117220046Y-111360859D01*
X117059140Y-111199953D01*
X116898377Y-111087387D01*
X116854752Y-111032811D01*
X116845500Y-110985812D01*
X116845500Y-108194462D01*
X116865185Y-108127423D01*
X116896613Y-108094144D01*
X116925871Y-108072888D01*
X117052533Y-107932216D01*
X117147179Y-107768284D01*
X117205674Y-107588256D01*
X117225460Y-107400000D01*
X117205674Y-107211744D01*
X117159657Y-107070120D01*
X117147179Y-107031715D01*
X117052533Y-106867783D01*
X116925870Y-106727110D01*
X116772730Y-106615848D01*
X116599802Y-106538855D01*
X116414648Y-106499500D01*
X116414646Y-106499500D01*
X116225354Y-106499500D01*
X116225352Y-106499500D01*
X116040197Y-106538855D01*
X115867269Y-106615848D01*
X115714129Y-106727110D01*
X115587466Y-106867783D01*
X115492820Y-107031715D01*
X115434326Y-107211742D01*
X115414540Y-107399999D01*
X115434326Y-107588257D01*
X115492820Y-107768284D01*
X115577887Y-107915623D01*
X115594500Y-107977623D01*
X115594500Y-110985812D01*
X115574815Y-111052851D01*
X115541623Y-111087387D01*
X115380859Y-111199953D01*
X115219953Y-111360859D01*
X115089433Y-111547263D01*
X115062382Y-111605275D01*
X115016209Y-111657714D01*
X114949015Y-111676865D01*
X114882134Y-111656649D01*
X114837618Y-111605275D01*
X114810687Y-111547522D01*
X114810568Y-111547266D01*
X114810566Y-111547263D01*
X114680046Y-111360859D01*
X114519140Y-111199953D01*
X114332735Y-111069432D01*
X114126497Y-110973261D01*
X113906689Y-110914364D01*
X113680000Y-110894531D01*
X113453310Y-110914364D01*
X113233502Y-110973261D01*
X113027264Y-111069432D01*
X112840859Y-111199953D01*
X112679953Y-111360859D01*
X112549433Y-111547263D01*
X112522382Y-111605275D01*
X112476209Y-111657714D01*
X112409015Y-111676865D01*
X112342134Y-111656649D01*
X112297618Y-111605275D01*
X112270687Y-111547522D01*
X112270568Y-111547266D01*
X112270566Y-111547263D01*
X112140046Y-111360859D01*
X111979140Y-111199953D01*
X111792735Y-111069432D01*
X111586497Y-110973261D01*
X111366689Y-110914364D01*
X111139999Y-110894531D01*
X110913310Y-110914364D01*
X110693502Y-110973261D01*
X110487264Y-111069432D01*
X110300859Y-111199953D01*
X110139953Y-111360859D01*
X110009433Y-111547263D01*
X109982382Y-111605275D01*
X109936209Y-111657714D01*
X109869015Y-111676865D01*
X109802134Y-111656649D01*
X109757618Y-111605275D01*
X109730687Y-111547522D01*
X109730568Y-111547266D01*
X109730566Y-111547263D01*
X109600046Y-111360859D01*
X109439140Y-111199953D01*
X109252735Y-111069432D01*
X109046497Y-110973261D01*
X108826689Y-110914364D01*
X108600000Y-110894531D01*
X108373310Y-110914364D01*
X108153502Y-110973261D01*
X107947264Y-111069432D01*
X107760859Y-111199953D01*
X107599953Y-111360859D01*
X107469433Y-111547263D01*
X107442382Y-111605275D01*
X107396209Y-111657714D01*
X107329015Y-111676865D01*
X107262134Y-111656649D01*
X107217618Y-111605275D01*
X107190687Y-111547522D01*
X107190568Y-111547266D01*
X107190566Y-111547263D01*
X107060046Y-111360859D01*
X106899140Y-111199953D01*
X106712735Y-111069432D01*
X106506497Y-110973261D01*
X106286689Y-110914364D01*
X106060000Y-110894531D01*
X105833310Y-110914364D01*
X105613502Y-110973261D01*
X105407264Y-111069432D01*
X105220859Y-111199953D01*
X105059951Y-111360861D01*
X105042725Y-111385463D01*
X104988148Y-111429088D01*
X104918649Y-111436280D01*
X104856295Y-111404757D01*
X104820882Y-111344527D01*
X104817861Y-111327592D01*
X104814091Y-111292517D01*
X104763796Y-111157669D01*
X104677546Y-111042454D01*
X104562331Y-110956204D01*
X104427483Y-110905909D01*
X104367873Y-110899500D01*
X104364550Y-110899500D01*
X102675439Y-110899500D01*
X102675420Y-110899500D01*
X102672128Y-110899501D01*
X102668848Y-110899853D01*
X102668840Y-110899854D01*
X102612515Y-110905909D01*
X102477669Y-110956204D01*
X102362454Y-111042454D01*
X102276204Y-111157668D01*
X102225910Y-111292515D01*
X102225909Y-111292517D01*
X102219500Y-111352127D01*
X102219500Y-111355448D01*
X102219500Y-111355449D01*
X102219500Y-113044560D01*
X102219500Y-113044578D01*
X102219501Y-113047872D01*
X102219853Y-113051152D01*
X102219854Y-113051159D01*
X102225909Y-113107484D01*
X102229779Y-113117860D01*
X102263088Y-113207166D01*
X102263089Y-113207167D01*
X102268073Y-113276858D01*
X102234588Y-113338181D01*
X102173265Y-113371666D01*
X102146907Y-113374500D01*
X101830452Y-113374500D01*
X101763413Y-113354815D01*
X101742771Y-113338181D01*
X101181819Y-112777228D01*
X101148334Y-112715905D01*
X101145500Y-112689547D01*
X101145500Y-99200000D01*
X110214540Y-99200000D01*
X110234326Y-99388257D01*
X110292820Y-99568284D01*
X110387466Y-99732216D01*
X110514129Y-99872889D01*
X110667269Y-99984151D01*
X110840197Y-100061144D01*
X111025352Y-100100500D01*
X111025354Y-100100500D01*
X111214648Y-100100500D01*
X111338083Y-100074262D01*
X111399803Y-100061144D01*
X111572730Y-99984151D01*
X111725871Y-99872888D01*
X111731598Y-99866527D01*
X111791084Y-99829879D01*
X111823747Y-99825500D01*
X127437256Y-99825500D01*
X127457762Y-99827764D01*
X127460665Y-99827672D01*
X127460667Y-99827673D01*
X127527872Y-99825561D01*
X127531768Y-99825500D01*
X127555448Y-99825500D01*
X127559350Y-99825500D01*
X127563313Y-99824999D01*
X127574962Y-99824080D01*
X127618627Y-99822709D01*
X127637859Y-99817120D01*
X127656918Y-99813174D01*
X127663196Y-99812381D01*
X127676792Y-99810664D01*
X127717407Y-99794582D01*
X127728444Y-99790803D01*
X127770390Y-99778618D01*
X127787629Y-99768422D01*
X127805102Y-99759862D01*
X127823732Y-99752486D01*
X127859064Y-99726814D01*
X127868830Y-99720400D01*
X127906418Y-99698171D01*
X127906417Y-99698171D01*
X127906420Y-99698170D01*
X127920585Y-99684004D01*
X127935373Y-99671373D01*
X127951587Y-99659594D01*
X127979438Y-99625926D01*
X127987279Y-99617309D01*
X134804589Y-92800000D01*
X140214540Y-92800000D01*
X140234326Y-92988257D01*
X140292820Y-93168284D01*
X140387466Y-93332216D01*
X140514129Y-93472889D01*
X140667269Y-93584151D01*
X140840197Y-93661144D01*
X141025352Y-93700500D01*
X141025354Y-93700500D01*
X141214648Y-93700500D01*
X141338083Y-93674262D01*
X141399803Y-93661144D01*
X141572730Y-93584151D01*
X141725871Y-93472888D01*
X141731598Y-93466527D01*
X141791084Y-93429879D01*
X141823747Y-93425500D01*
X159049151Y-93425500D01*
X159072385Y-93427696D01*
X159080412Y-93429227D01*
X159135759Y-93425745D01*
X159143545Y-93425500D01*
X159155458Y-93425500D01*
X159159350Y-93425500D01*
X159175042Y-93423517D01*
X159182738Y-93422788D01*
X159238138Y-93419304D01*
X159245902Y-93416781D01*
X159268676Y-93411689D01*
X159276792Y-93410664D01*
X159328396Y-93390231D01*
X159335671Y-93387612D01*
X159388441Y-93370467D01*
X159395337Y-93366090D01*
X159416132Y-93355494D01*
X159423732Y-93352486D01*
X159468624Y-93319869D01*
X159475026Y-93315517D01*
X159521877Y-93285786D01*
X159527461Y-93279838D01*
X159544979Y-93264394D01*
X159551587Y-93259594D01*
X159551588Y-93259591D01*
X159551590Y-93259591D01*
X159586938Y-93216861D01*
X159592080Y-93211027D01*
X159630062Y-93170582D01*
X159633999Y-93163418D01*
X159647119Y-93144114D01*
X159652324Y-93137823D01*
X159675942Y-93087630D01*
X159679467Y-93080711D01*
X159706197Y-93032092D01*
X159708228Y-93024177D01*
X159716132Y-93002223D01*
X159719614Y-92994826D01*
X159730010Y-92940325D01*
X159731698Y-92932768D01*
X159745500Y-92879019D01*
X159745500Y-92870844D01*
X159747697Y-92847607D01*
X159749227Y-92839586D01*
X159745745Y-92784240D01*
X159745500Y-92776454D01*
X159745500Y-90350000D01*
X172870000Y-90350000D01*
X172870000Y-90894518D01*
X172870354Y-90901132D01*
X172876400Y-90957371D01*
X172926647Y-91092089D01*
X173012811Y-91207188D01*
X173127910Y-91293352D01*
X173262628Y-91343599D01*
X173318867Y-91349645D01*
X173325482Y-91350000D01*
X174870000Y-91350000D01*
X174870000Y-90350000D01*
X172870000Y-90350000D01*
X159745500Y-90350000D01*
X159745500Y-89850000D01*
X172870000Y-89850000D01*
X174870000Y-89850000D01*
X174870000Y-88850000D01*
X173325482Y-88850000D01*
X173318867Y-88850354D01*
X173262628Y-88856400D01*
X173127910Y-88906647D01*
X173012811Y-88992811D01*
X172926647Y-89107910D01*
X172876400Y-89242628D01*
X172870354Y-89298867D01*
X172870000Y-89305481D01*
X172870000Y-89850000D01*
X159745500Y-89850000D01*
X159745500Y-84950000D01*
X172870000Y-84950000D01*
X172870000Y-85494518D01*
X172870354Y-85501132D01*
X172876400Y-85557371D01*
X172926647Y-85692089D01*
X173012811Y-85807188D01*
X173127910Y-85893352D01*
X173262628Y-85943599D01*
X173318867Y-85949645D01*
X173325482Y-85950000D01*
X174870000Y-85950000D01*
X174870000Y-84950000D01*
X172870000Y-84950000D01*
X159745500Y-84950000D01*
X159745500Y-84450000D01*
X172870000Y-84450000D01*
X174870000Y-84450000D01*
X174870000Y-83450000D01*
X173325482Y-83450000D01*
X173318867Y-83450354D01*
X173262628Y-83456400D01*
X173127910Y-83506647D01*
X173012811Y-83592811D01*
X172926647Y-83707910D01*
X172876400Y-83842628D01*
X172870354Y-83898867D01*
X172870000Y-83905481D01*
X172870000Y-84450000D01*
X159745500Y-84450000D01*
X159745500Y-78098687D01*
X159765185Y-78031648D01*
X159777350Y-78015714D01*
X159852533Y-77932216D01*
X159947179Y-77768284D01*
X160005674Y-77588256D01*
X160025460Y-77400000D01*
X160005674Y-77211744D01*
X159969528Y-77100500D01*
X159947179Y-77031715D01*
X159852533Y-76867783D01*
X159725870Y-76727110D01*
X159572730Y-76615848D01*
X159399802Y-76538855D01*
X159214648Y-76499500D01*
X159214646Y-76499500D01*
X159025354Y-76499500D01*
X159025352Y-76499500D01*
X158840197Y-76538855D01*
X158667269Y-76615848D01*
X158514129Y-76727110D01*
X158387466Y-76867783D01*
X158292820Y-77031715D01*
X158234326Y-77211742D01*
X158214540Y-77399999D01*
X158214540Y-77400000D01*
X158222232Y-77473185D01*
X158234326Y-77588257D01*
X158292820Y-77768284D01*
X158387464Y-77932213D01*
X158462650Y-78015714D01*
X158492880Y-78078706D01*
X158494500Y-78098687D01*
X158494500Y-92050500D01*
X158474815Y-92117539D01*
X158422011Y-92163294D01*
X158370500Y-92174500D01*
X141823747Y-92174500D01*
X141756708Y-92154815D01*
X141731599Y-92133473D01*
X141725871Y-92127112D01*
X141572730Y-92015849D01*
X141572729Y-92015848D01*
X141572727Y-92015847D01*
X141399802Y-91938855D01*
X141214648Y-91899500D01*
X141214646Y-91899500D01*
X141025354Y-91899500D01*
X141025352Y-91899500D01*
X140840197Y-91938855D01*
X140667269Y-92015848D01*
X140514129Y-92127110D01*
X140387466Y-92267783D01*
X140292820Y-92431715D01*
X140234326Y-92611742D01*
X140214540Y-92800000D01*
X134804589Y-92800000D01*
X138903789Y-88700800D01*
X138919885Y-88687906D01*
X138921873Y-88685787D01*
X138921877Y-88685786D01*
X138967949Y-88636723D01*
X138970534Y-88634055D01*
X138990120Y-88614471D01*
X138992585Y-88611292D01*
X139000167Y-88602416D01*
X139030062Y-88570582D01*
X139039717Y-88553018D01*
X139050394Y-88536764D01*
X139062673Y-88520936D01*
X139080018Y-88480852D01*
X139085160Y-88470356D01*
X139106197Y-88432092D01*
X139111179Y-88412684D01*
X139117481Y-88394280D01*
X139125437Y-88375896D01*
X139132269Y-88332752D01*
X139134633Y-88321338D01*
X139145500Y-88279019D01*
X139145500Y-88258983D01*
X139147027Y-88239584D01*
X139150160Y-88219804D01*
X139146050Y-88176324D01*
X139145500Y-88164655D01*
X139145500Y-80082740D01*
X139147763Y-80062239D01*
X139145561Y-79992144D01*
X139145500Y-79988250D01*
X139145500Y-79964544D01*
X139145500Y-79960650D01*
X139144998Y-79956681D01*
X139144080Y-79945024D01*
X139142709Y-79901373D01*
X139137120Y-79882140D01*
X139133174Y-79863082D01*
X139130664Y-79843208D01*
X139114588Y-79802606D01*
X139110804Y-79791552D01*
X139098619Y-79749613D01*
X139098618Y-79749612D01*
X139098618Y-79749610D01*
X139088417Y-79732361D01*
X139079860Y-79714895D01*
X139072486Y-79696268D01*
X139046813Y-79660932D01*
X139040402Y-79651172D01*
X139018169Y-79613578D01*
X139004006Y-79599415D01*
X138991369Y-79584620D01*
X138979595Y-79568414D01*
X138979594Y-79568413D01*
X138945935Y-79540568D01*
X138937305Y-79532714D01*
X137020802Y-77616211D01*
X137007906Y-77600113D01*
X136956775Y-77552098D01*
X136953978Y-77549387D01*
X136937227Y-77532636D01*
X136934471Y-77529880D01*
X136931290Y-77527412D01*
X136922422Y-77519837D01*
X136890582Y-77489938D01*
X136873024Y-77480285D01*
X136856764Y-77469604D01*
X136840936Y-77457327D01*
X136800851Y-77439980D01*
X136790361Y-77434841D01*
X136752091Y-77413802D01*
X136732691Y-77408821D01*
X136714284Y-77402519D01*
X136695897Y-77394562D01*
X136652758Y-77387729D01*
X136641324Y-77385361D01*
X136599019Y-77374500D01*
X136578984Y-77374500D01*
X136559586Y-77372973D01*
X136552162Y-77371797D01*
X136539805Y-77369840D01*
X136539804Y-77369840D01*
X136514468Y-77372235D01*
X136496325Y-77373950D01*
X136484656Y-77374500D01*
X129402744Y-77374500D01*
X129382237Y-77372235D01*
X129312127Y-77374439D01*
X129308232Y-77374500D01*
X129280650Y-77374500D01*
X129276805Y-77374985D01*
X129276780Y-77374987D01*
X129276653Y-77375004D01*
X129265033Y-77375918D01*
X129221369Y-77377290D01*
X129202129Y-77382880D01*
X129183081Y-77386825D01*
X129163209Y-77389335D01*
X129122599Y-77405413D01*
X129111554Y-77409194D01*
X129069610Y-77421381D01*
X129052365Y-77431579D01*
X129034904Y-77440133D01*
X129016267Y-77447512D01*
X128980931Y-77473185D01*
X128971174Y-77479595D01*
X128933580Y-77501829D01*
X128919413Y-77515996D01*
X128904624Y-77528626D01*
X128888413Y-77540404D01*
X128860572Y-77574058D01*
X128852711Y-77582697D01*
X128572227Y-77863182D01*
X128510907Y-77896666D01*
X128484548Y-77899500D01*
X128425352Y-77899500D01*
X128240197Y-77938855D01*
X128067269Y-78015848D01*
X127914129Y-78127110D01*
X127787466Y-78267783D01*
X127692820Y-78431715D01*
X127634326Y-78611742D01*
X127614540Y-78799999D01*
X127634326Y-78988257D01*
X127692820Y-79168284D01*
X127787466Y-79332216D01*
X127914129Y-79472889D01*
X128067269Y-79584151D01*
X128240197Y-79661144D01*
X128425352Y-79700500D01*
X128425354Y-79700500D01*
X128614648Y-79700500D01*
X128738083Y-79674262D01*
X128799803Y-79661144D01*
X128972730Y-79584151D01*
X129125871Y-79472888D01*
X129252533Y-79332216D01*
X129347179Y-79168284D01*
X129405674Y-78988256D01*
X129423321Y-78820346D01*
X129449904Y-78755735D01*
X129458961Y-78745629D01*
X129542774Y-78661818D01*
X129604097Y-78628333D01*
X129630454Y-78625500D01*
X136209548Y-78625500D01*
X136276587Y-78645185D01*
X136297229Y-78661819D01*
X137858181Y-80222771D01*
X137891666Y-80284094D01*
X137894500Y-80310452D01*
X137894500Y-87889547D01*
X137874815Y-87956586D01*
X137858181Y-87977228D01*
X127297228Y-98538181D01*
X127235905Y-98571666D01*
X127209547Y-98574500D01*
X111823747Y-98574500D01*
X111756708Y-98554815D01*
X111731599Y-98533473D01*
X111725871Y-98527112D01*
X111572730Y-98415849D01*
X111572729Y-98415848D01*
X111572727Y-98415847D01*
X111399802Y-98338855D01*
X111214648Y-98299500D01*
X111214646Y-98299500D01*
X111025354Y-98299500D01*
X111025352Y-98299500D01*
X110840197Y-98338855D01*
X110667269Y-98415848D01*
X110514129Y-98527110D01*
X110387466Y-98667783D01*
X110292820Y-98831715D01*
X110234326Y-99011742D01*
X110214540Y-99200000D01*
X101145500Y-99200000D01*
X101145500Y-98710452D01*
X101165185Y-98643413D01*
X101181819Y-98622771D01*
X102817772Y-96986819D01*
X102879095Y-96953334D01*
X102905453Y-96950500D01*
X117595869Y-96950500D01*
X117662908Y-96970185D01*
X117691722Y-96995835D01*
X117726630Y-97038370D01*
X117879509Y-97163835D01*
X118053927Y-97257063D01*
X118243182Y-97314473D01*
X118440000Y-97333858D01*
X118636818Y-97314473D01*
X118826073Y-97257063D01*
X119000491Y-97163835D01*
X119153370Y-97038370D01*
X119278835Y-96885491D01*
X119372063Y-96711073D01*
X119429473Y-96521818D01*
X119448858Y-96325000D01*
X119429473Y-96128182D01*
X119372063Y-95938927D01*
X119278835Y-95764509D01*
X119166937Y-95628162D01*
X119139626Y-95563855D01*
X119151417Y-95494988D01*
X119198569Y-95443428D01*
X119262792Y-95425500D01*
X121484548Y-95425500D01*
X121551587Y-95445185D01*
X121572229Y-95461819D01*
X122280813Y-96170403D01*
X122314298Y-96231726D01*
X122316535Y-96270237D01*
X122311141Y-96324998D01*
X122330527Y-96521819D01*
X122387936Y-96711072D01*
X122387937Y-96711073D01*
X122481165Y-96885491D01*
X122606630Y-97038370D01*
X122759509Y-97163835D01*
X122933927Y-97257063D01*
X123123182Y-97314473D01*
X123320000Y-97333858D01*
X123516818Y-97314473D01*
X123706073Y-97257063D01*
X123880491Y-97163835D01*
X124033370Y-97038370D01*
X124158835Y-96885491D01*
X124252063Y-96711073D01*
X124309473Y-96521818D01*
X124328858Y-96325000D01*
X124309473Y-96128182D01*
X124252063Y-95938927D01*
X124158835Y-95764509D01*
X124033370Y-95611630D01*
X123880491Y-95486165D01*
X123880490Y-95486164D01*
X123706072Y-95392936D01*
X123516819Y-95335527D01*
X123319999Y-95316141D01*
X123265238Y-95321535D01*
X123196592Y-95308516D01*
X123165404Y-95285813D01*
X122295802Y-94416211D01*
X122282906Y-94400113D01*
X122231775Y-94352098D01*
X122228978Y-94349387D01*
X122212227Y-94332636D01*
X122209471Y-94329880D01*
X122206290Y-94327412D01*
X122197422Y-94319837D01*
X122165582Y-94289938D01*
X122148024Y-94280285D01*
X122131764Y-94269604D01*
X122115936Y-94257327D01*
X122075851Y-94239980D01*
X122065361Y-94234841D01*
X122027091Y-94213802D01*
X122007691Y-94208821D01*
X121989284Y-94202519D01*
X121970897Y-94194562D01*
X121927758Y-94187729D01*
X121916324Y-94185361D01*
X121874019Y-94174500D01*
X121853984Y-94174500D01*
X121834586Y-94172973D01*
X121827162Y-94171797D01*
X121814805Y-94169840D01*
X121814804Y-94169840D01*
X121788484Y-94172328D01*
X121771325Y-94173950D01*
X121759656Y-94174500D01*
X101802740Y-94174500D01*
X101782236Y-94172236D01*
X101712144Y-94174439D01*
X101708250Y-94174500D01*
X101680650Y-94174500D01*
X101676789Y-94174987D01*
X101676778Y-94174988D01*
X101676645Y-94175005D01*
X101665029Y-94175918D01*
X101621368Y-94177290D01*
X101602129Y-94182880D01*
X101583080Y-94186825D01*
X101563208Y-94189335D01*
X101522593Y-94205415D01*
X101511549Y-94209196D01*
X101469611Y-94221382D01*
X101452364Y-94231581D01*
X101434900Y-94240136D01*
X101416267Y-94247514D01*
X101380926Y-94273189D01*
X101371168Y-94279599D01*
X101333579Y-94301829D01*
X101319410Y-94315998D01*
X101304622Y-94328628D01*
X101288413Y-94340405D01*
X101260572Y-94374058D01*
X101252711Y-94382696D01*
X98136208Y-97499199D01*
X98120110Y-97512096D01*
X98072096Y-97563225D01*
X98069392Y-97566016D01*
X98052628Y-97582780D01*
X98052621Y-97582787D01*
X98049880Y-97585529D01*
X98047499Y-97588597D01*
X98047490Y-97588608D01*
X98047411Y-97588711D01*
X98039842Y-97597572D01*
X98009935Y-97629420D01*
X98000285Y-97646974D01*
X97989609Y-97663228D01*
X97977326Y-97679063D01*
X97959975Y-97719158D01*
X97954838Y-97729644D01*
X97933802Y-97767907D01*
X97928821Y-97787309D01*
X97922520Y-97805711D01*
X97914561Y-97824102D01*
X97907728Y-97867242D01*
X97905360Y-97878674D01*
X97894499Y-97920977D01*
X97894500Y-97941016D01*
X97892973Y-97960414D01*
X97889840Y-97980194D01*
X97120500Y-97980194D01*
X97120500Y-91600000D01*
X106814540Y-91600000D01*
X106834326Y-91788257D01*
X106892820Y-91968284D01*
X106987466Y-92132216D01*
X107114129Y-92272889D01*
X107267269Y-92384151D01*
X107440197Y-92461144D01*
X107625352Y-92500500D01*
X107625354Y-92500500D01*
X107814648Y-92500500D01*
X107938083Y-92474262D01*
X107999803Y-92461144D01*
X108172730Y-92384151D01*
X108325871Y-92272888D01*
X108452533Y-92132216D01*
X108547179Y-91968284D01*
X108605674Y-91788256D01*
X108623321Y-91620345D01*
X108649905Y-91555732D01*
X108658952Y-91545636D01*
X125903789Y-74300800D01*
X125919885Y-74287906D01*
X125921873Y-74285787D01*
X125921877Y-74285786D01*
X125967949Y-74236723D01*
X125970534Y-74234055D01*
X125990120Y-74214471D01*
X125992585Y-74211292D01*
X126000167Y-74202416D01*
X126030062Y-74170582D01*
X126039717Y-74153018D01*
X126050394Y-74136764D01*
X126062673Y-74120936D01*
X126080018Y-74080852D01*
X126085160Y-74070356D01*
X126087876Y-74065416D01*
X126106197Y-74032092D01*
X126111179Y-74012684D01*
X126117481Y-73994280D01*
X126125437Y-73975896D01*
X126132269Y-73932752D01*
X126134633Y-73921338D01*
X126145500Y-73879019D01*
X126145500Y-73858983D01*
X126147027Y-73839584D01*
X126150160Y-73819804D01*
X126146047Y-73776311D01*
X126145499Y-73764683D01*
X126145499Y-71898685D01*
X126165184Y-71831646D01*
X126177347Y-71815716D01*
X126252533Y-71732216D01*
X126347179Y-71568284D01*
X126405674Y-71388256D01*
X126425460Y-71200000D01*
X126405674Y-71011744D01*
X126375332Y-70918363D01*
X126347179Y-70831715D01*
X126252533Y-70667783D01*
X126125870Y-70527110D01*
X125972730Y-70415848D01*
X125799802Y-70338855D01*
X125614648Y-70299500D01*
X125614646Y-70299500D01*
X125425354Y-70299500D01*
X125425352Y-70299500D01*
X125240197Y-70338855D01*
X125067269Y-70415848D01*
X124914129Y-70527110D01*
X124787466Y-70667783D01*
X124692820Y-70831715D01*
X124634326Y-71011742D01*
X124614540Y-71199999D01*
X124634326Y-71388257D01*
X124692820Y-71568284D01*
X124787464Y-71732213D01*
X124862650Y-71815714D01*
X124892880Y-71878706D01*
X124894500Y-71898687D01*
X124894500Y-73489546D01*
X124874815Y-73556585D01*
X124858181Y-73577227D01*
X107772228Y-90663181D01*
X107710905Y-90696666D01*
X107684547Y-90699500D01*
X107625352Y-90699500D01*
X107440197Y-90738855D01*
X107267269Y-90815848D01*
X107114129Y-90927110D01*
X106987466Y-91067783D01*
X106892820Y-91231715D01*
X106834326Y-91411742D01*
X106814540Y-91600000D01*
X97120500Y-91600000D01*
X97120500Y-76200000D01*
X98214540Y-76200000D01*
X98234326Y-76388257D01*
X98292820Y-76568284D01*
X98387466Y-76732216D01*
X98514129Y-76872889D01*
X98667269Y-76984151D01*
X98840197Y-77061144D01*
X99025352Y-77100500D01*
X99025354Y-77100500D01*
X99214648Y-77100500D01*
X99338083Y-77074262D01*
X99399803Y-77061144D01*
X99572730Y-76984151D01*
X99586449Y-76974183D01*
X99652256Y-76950702D01*
X99659337Y-76950500D01*
X103656294Y-76950500D01*
X103674264Y-76951809D01*
X103678320Y-76952402D01*
X103698023Y-76955289D01*
X103747368Y-76950972D01*
X103758176Y-76950500D01*
X103760100Y-76950500D01*
X103763709Y-76950500D01*
X103794550Y-76946894D01*
X103798031Y-76946539D01*
X103872797Y-76939999D01*
X103872797Y-76939998D01*
X103874052Y-76939889D01*
X103893062Y-76935674D01*
X103894250Y-76935241D01*
X103894255Y-76935241D01*
X103964820Y-76909557D01*
X103968095Y-76908419D01*
X104039334Y-76884814D01*
X104039336Y-76884812D01*
X104040536Y-76884415D01*
X104058063Y-76875929D01*
X104059112Y-76875238D01*
X104059117Y-76875237D01*
X104121806Y-76834005D01*
X104124798Y-76832099D01*
X104188656Y-76792712D01*
X104188656Y-76792711D01*
X104189729Y-76792050D01*
X104204824Y-76779753D01*
X104205692Y-76778832D01*
X104205696Y-76778830D01*
X104257185Y-76724253D01*
X104259631Y-76721735D01*
X115605638Y-65375727D01*
X115619256Y-65363957D01*
X115638530Y-65349610D01*
X115670372Y-65311661D01*
X115677686Y-65303681D01*
X115678264Y-65303102D01*
X115681591Y-65299776D01*
X115700853Y-65275413D01*
X115703076Y-65272686D01*
X115707808Y-65267047D01*
X115751302Y-65215214D01*
X115751303Y-65215211D01*
X115752115Y-65214244D01*
X115762573Y-65197828D01*
X115763107Y-65196680D01*
X115763111Y-65196677D01*
X115794845Y-65128621D01*
X115796371Y-65125470D01*
X115830040Y-65058433D01*
X115830040Y-65058431D01*
X115830609Y-65057299D01*
X115837002Y-65038906D01*
X115852431Y-64964184D01*
X115853212Y-64960660D01*
X115855226Y-64952165D01*
X115870500Y-64887721D01*
X115870500Y-64887720D01*
X115870791Y-64886493D01*
X115872770Y-64867120D01*
X115872733Y-64865858D01*
X115872734Y-64865855D01*
X115870552Y-64790868D01*
X115870500Y-64787262D01*
X115870500Y-63362228D01*
X115890185Y-63295189D01*
X115906814Y-63274552D01*
X118723960Y-60457406D01*
X118785281Y-60423923D01*
X118854973Y-60428907D01*
X118910906Y-60470779D01*
X118935323Y-60536243D01*
X118931742Y-60575930D01*
X118928820Y-60587309D01*
X118922520Y-60605711D01*
X118914561Y-60624102D01*
X118907728Y-60667242D01*
X118905360Y-60678674D01*
X118894499Y-60720977D01*
X118894500Y-60741016D01*
X118892973Y-60760414D01*
X118889840Y-60780194D01*
X118893950Y-60823673D01*
X118894500Y-60835343D01*
X118894500Y-69889547D01*
X118874815Y-69956586D01*
X118858181Y-69977228D01*
X117972228Y-70863181D01*
X117910905Y-70896666D01*
X117884547Y-70899500D01*
X117825352Y-70899500D01*
X117640197Y-70938855D01*
X117467269Y-71015848D01*
X117314129Y-71127110D01*
X117187466Y-71267783D01*
X117092820Y-71431715D01*
X117034326Y-71611742D01*
X117014540Y-71800000D01*
X117034326Y-71988257D01*
X117092820Y-72168284D01*
X117187466Y-72332216D01*
X117314129Y-72472889D01*
X117467269Y-72584151D01*
X117640197Y-72661144D01*
X117825352Y-72700500D01*
X117825354Y-72700500D01*
X118014648Y-72700500D01*
X118138083Y-72674262D01*
X118199803Y-72661144D01*
X118372730Y-72584151D01*
X118525871Y-72472888D01*
X118652533Y-72332216D01*
X118747179Y-72168284D01*
X118805674Y-71988256D01*
X118823321Y-71820345D01*
X118849905Y-71755732D01*
X118858952Y-71745636D01*
X119903786Y-70700802D01*
X119919886Y-70687905D01*
X119921874Y-70685787D01*
X119921877Y-70685786D01*
X119967964Y-70636707D01*
X119970549Y-70634039D01*
X119990120Y-70614470D01*
X119992565Y-70611316D01*
X120000154Y-70602429D01*
X120030062Y-70570582D01*
X120039713Y-70553026D01*
X120050393Y-70536767D01*
X120062674Y-70520936D01*
X120080018Y-70480851D01*
X120085160Y-70470356D01*
X120106197Y-70432092D01*
X120111178Y-70412688D01*
X120117480Y-70394283D01*
X120125438Y-70375895D01*
X120132270Y-70332748D01*
X120134639Y-70321315D01*
X120145500Y-70279019D01*
X120145499Y-70258992D01*
X120147025Y-70239591D01*
X120150160Y-70219804D01*
X120146050Y-70176324D01*
X120145500Y-70164655D01*
X120145500Y-61349500D01*
X120165185Y-61282461D01*
X120217989Y-61236706D01*
X120269500Y-61225500D01*
X125317586Y-61225500D01*
X125384625Y-61245185D01*
X125416537Y-61274770D01*
X125473589Y-61350320D01*
X125507574Y-61395324D01*
X125620959Y-61498687D01*
X125668568Y-61542088D01*
X125736133Y-61583922D01*
X125853791Y-61656773D01*
X125965373Y-61700000D01*
X126056931Y-61735470D01*
X126271074Y-61775500D01*
X126271076Y-61775500D01*
X126488924Y-61775500D01*
X126488926Y-61775500D01*
X126703069Y-61735470D01*
X126899210Y-61659484D01*
X126906208Y-61656773D01*
X126906210Y-61656772D01*
X127091432Y-61542088D01*
X127252427Y-61395322D01*
X127383712Y-61221472D01*
X127480817Y-61026459D01*
X127530993Y-60850104D01*
X127568272Y-60791015D01*
X127631581Y-60761457D01*
X127700821Y-60770819D01*
X127754007Y-60816128D01*
X127769525Y-60850107D01*
X127819651Y-61026278D01*
X127916712Y-61221204D01*
X127928987Y-61237459D01*
X128475550Y-60690896D01*
X128476327Y-60701265D01*
X128525887Y-60827541D01*
X128610465Y-60933599D01*
X128722547Y-61010016D01*
X128830299Y-61043252D01*
X128284831Y-61588719D01*
X128394013Y-61656322D01*
X128597068Y-61734986D01*
X128811122Y-61775000D01*
X129028878Y-61775000D01*
X129242931Y-61734986D01*
X129445988Y-61656322D01*
X129555166Y-61588720D01*
X129555166Y-61588719D01*
X129008232Y-61041784D01*
X129054138Y-61034865D01*
X129176357Y-60976007D01*
X129275798Y-60883740D01*
X129343625Y-60766260D01*
X129361499Y-60687947D01*
X129911011Y-61237459D01*
X129911012Y-61237459D01*
X129923285Y-61221208D01*
X130020347Y-61026281D01*
X130041233Y-60952874D01*
X130078512Y-60893780D01*
X130141822Y-60864222D01*
X130211061Y-60873583D01*
X130264248Y-60918893D01*
X130284496Y-60985764D01*
X130284500Y-60986807D01*
X130284500Y-61319560D01*
X130284500Y-61319578D01*
X130284501Y-61322872D01*
X130284853Y-61326152D01*
X130284854Y-61326159D01*
X130290909Y-61382484D01*
X130303303Y-61415714D01*
X130341204Y-61517331D01*
X130427454Y-61632546D01*
X130542669Y-61718796D01*
X130677517Y-61769091D01*
X130737127Y-61775500D01*
X132182872Y-61775499D01*
X132242483Y-61769091D01*
X132377331Y-61718796D01*
X132492546Y-61632546D01*
X132578796Y-61517331D01*
X132629091Y-61382483D01*
X132635500Y-61322873D01*
X132635500Y-60800000D01*
X138014540Y-60800000D01*
X138034326Y-60988257D01*
X138092820Y-61168284D01*
X138187464Y-61332213D01*
X138187467Y-61332216D01*
X138259073Y-61411742D01*
X138262650Y-61415714D01*
X138292880Y-61478706D01*
X138294500Y-61498687D01*
X138294500Y-78117256D01*
X138292235Y-78137766D01*
X138294439Y-78207872D01*
X138294500Y-78211767D01*
X138294500Y-78239350D01*
X138294988Y-78243219D01*
X138294989Y-78243225D01*
X138295004Y-78243343D01*
X138295918Y-78254967D01*
X138297290Y-78298626D01*
X138302879Y-78317860D01*
X138306825Y-78336916D01*
X138309335Y-78356792D01*
X138325414Y-78397404D01*
X138329197Y-78408451D01*
X138341382Y-78450391D01*
X138351580Y-78467635D01*
X138360136Y-78485100D01*
X138367514Y-78503732D01*
X138367515Y-78503733D01*
X138393180Y-78539059D01*
X138399593Y-78548822D01*
X138421826Y-78586416D01*
X138421829Y-78586419D01*
X138421830Y-78586420D01*
X138435995Y-78600585D01*
X138448627Y-78615375D01*
X138460406Y-78631587D01*
X138494058Y-78659426D01*
X138502699Y-78667289D01*
X147219196Y-87383787D01*
X147232096Y-87399888D01*
X147283223Y-87447900D01*
X147286020Y-87450611D01*
X147305529Y-87470120D01*
X147308709Y-87472587D01*
X147317571Y-87480155D01*
X147349418Y-87510062D01*
X147366970Y-87519711D01*
X147383238Y-87530397D01*
X147399064Y-87542673D01*
X147439146Y-87560017D01*
X147449633Y-87565155D01*
X147487907Y-87586197D01*
X147496410Y-87588379D01*
X147507308Y-87591178D01*
X147525713Y-87597478D01*
X147544104Y-87605437D01*
X147587250Y-87612270D01*
X147598668Y-87614635D01*
X147640981Y-87625500D01*
X147661016Y-87625500D01*
X147680415Y-87627027D01*
X147700196Y-87630160D01*
X147743674Y-87626050D01*
X147755344Y-87625500D01*
X149216253Y-87625500D01*
X149283292Y-87645185D01*
X149308400Y-87666526D01*
X149314129Y-87672888D01*
X149467270Y-87784151D01*
X149467271Y-87784151D01*
X149467272Y-87784152D01*
X149640197Y-87861144D01*
X149825352Y-87900500D01*
X149825354Y-87900500D01*
X150014648Y-87900500D01*
X150138083Y-87874262D01*
X150199803Y-87861144D01*
X150372730Y-87784151D01*
X150525871Y-87672888D01*
X150652533Y-87532216D01*
X150747179Y-87368284D01*
X150805674Y-87188256D01*
X150825460Y-87000000D01*
X150805674Y-86811744D01*
X150747179Y-86631716D01*
X150747179Y-86631715D01*
X150652533Y-86467783D01*
X150525870Y-86327110D01*
X150372730Y-86215848D01*
X150199802Y-86138855D01*
X150014648Y-86099500D01*
X150014646Y-86099500D01*
X149825354Y-86099500D01*
X149825352Y-86099500D01*
X149640197Y-86138855D01*
X149467272Y-86215847D01*
X149365176Y-86290024D01*
X149314129Y-86327112D01*
X149308401Y-86333472D01*
X149248916Y-86370121D01*
X149216253Y-86374500D01*
X148030453Y-86374500D01*
X147963414Y-86354815D01*
X147942772Y-86338181D01*
X143004591Y-81400000D01*
X143814540Y-81400000D01*
X143834326Y-81588257D01*
X143892820Y-81768284D01*
X143987466Y-81932216D01*
X144114129Y-82072889D01*
X144267269Y-82184151D01*
X144440197Y-82261144D01*
X144625352Y-82300500D01*
X144625354Y-82300500D01*
X144814648Y-82300500D01*
X144938083Y-82274262D01*
X144999803Y-82261144D01*
X145172730Y-82184151D01*
X145325871Y-82072888D01*
X145331598Y-82066527D01*
X145391084Y-82029879D01*
X145423747Y-82025500D01*
X156416253Y-82025500D01*
X156483292Y-82045185D01*
X156508400Y-82066526D01*
X156514129Y-82072888D01*
X156667270Y-82184151D01*
X156667271Y-82184151D01*
X156667272Y-82184152D01*
X156840197Y-82261144D01*
X157025352Y-82300500D01*
X157025354Y-82300500D01*
X157214648Y-82300500D01*
X157338083Y-82274262D01*
X157399803Y-82261144D01*
X157572730Y-82184151D01*
X157725871Y-82072888D01*
X157852533Y-81932216D01*
X157947179Y-81768284D01*
X158005674Y-81588256D01*
X158025460Y-81400000D01*
X158005674Y-81211744D01*
X157947179Y-81031716D01*
X157947179Y-81031715D01*
X157852533Y-80867783D01*
X157725870Y-80727110D01*
X157572730Y-80615848D01*
X157399802Y-80538855D01*
X157214648Y-80499500D01*
X157214646Y-80499500D01*
X157025354Y-80499500D01*
X157025352Y-80499500D01*
X156840197Y-80538855D01*
X156667272Y-80615847D01*
X156565176Y-80690024D01*
X156514129Y-80727112D01*
X156508401Y-80733472D01*
X156448916Y-80770121D01*
X156416253Y-80774500D01*
X145423747Y-80774500D01*
X145356708Y-80754815D01*
X145331599Y-80733473D01*
X145325871Y-80727112D01*
X145172730Y-80615849D01*
X145172729Y-80615848D01*
X145172727Y-80615847D01*
X144999802Y-80538855D01*
X144814648Y-80499500D01*
X144814646Y-80499500D01*
X144625354Y-80499500D01*
X144625352Y-80499500D01*
X144440197Y-80538855D01*
X144267269Y-80615848D01*
X144114129Y-80727110D01*
X143987466Y-80867783D01*
X143892820Y-81031715D01*
X143834326Y-81211742D01*
X143814540Y-81400000D01*
X143004591Y-81400000D01*
X139581819Y-77977228D01*
X139548334Y-77915905D01*
X139545500Y-77889547D01*
X139545500Y-61599999D01*
X141814540Y-61599999D01*
X141834326Y-61788257D01*
X141892820Y-61968284D01*
X141987464Y-62132213D01*
X142062650Y-62215714D01*
X142092880Y-62278706D01*
X142094500Y-62298687D01*
X142094500Y-76517256D01*
X142092235Y-76537766D01*
X142094439Y-76607872D01*
X142094500Y-76611767D01*
X142094500Y-76639350D01*
X142094988Y-76643219D01*
X142094989Y-76643225D01*
X142095004Y-76643343D01*
X142095918Y-76654967D01*
X142097290Y-76698626D01*
X142102879Y-76717860D01*
X142106825Y-76736916D01*
X142109335Y-76756792D01*
X142125414Y-76797404D01*
X142129197Y-76808451D01*
X142141382Y-76850391D01*
X142151580Y-76867635D01*
X142160136Y-76885100D01*
X142167514Y-76903732D01*
X142171323Y-76908974D01*
X142193180Y-76939059D01*
X142199593Y-76948822D01*
X142221826Y-76986416D01*
X142221829Y-76986419D01*
X142221830Y-76986420D01*
X142235995Y-77000585D01*
X142248627Y-77015375D01*
X142260406Y-77031587D01*
X142294058Y-77059426D01*
X142302699Y-77067289D01*
X144219196Y-78983787D01*
X144232096Y-78999888D01*
X144283223Y-79047900D01*
X144286020Y-79050611D01*
X144305529Y-79070120D01*
X144308709Y-79072587D01*
X144317571Y-79080155D01*
X144349418Y-79110062D01*
X144366970Y-79119711D01*
X144383238Y-79130397D01*
X144399064Y-79142673D01*
X144439146Y-79160017D01*
X144449633Y-79165155D01*
X144487907Y-79186197D01*
X144496410Y-79188379D01*
X144507308Y-79191178D01*
X144525713Y-79197478D01*
X144544104Y-79205437D01*
X144587250Y-79212270D01*
X144598668Y-79214635D01*
X144640981Y-79225500D01*
X144661016Y-79225500D01*
X144680415Y-79227027D01*
X144700196Y-79230160D01*
X144743674Y-79226050D01*
X144755344Y-79225500D01*
X146816253Y-79225500D01*
X146883292Y-79245185D01*
X146908400Y-79266526D01*
X146914129Y-79272888D01*
X147067270Y-79384151D01*
X147067271Y-79384151D01*
X147067272Y-79384152D01*
X147240197Y-79461144D01*
X147425352Y-79500500D01*
X147425354Y-79500500D01*
X147614648Y-79500500D01*
X147744551Y-79472888D01*
X147799803Y-79461144D01*
X147972730Y-79384151D01*
X148125871Y-79272888D01*
X148252533Y-79132216D01*
X148347179Y-78968284D01*
X148405674Y-78788256D01*
X148425460Y-78600000D01*
X148405674Y-78411744D01*
X148350919Y-78243225D01*
X148347179Y-78231715D01*
X148252533Y-78067783D01*
X148125870Y-77927110D01*
X147972730Y-77815848D01*
X147799802Y-77738855D01*
X147614648Y-77699500D01*
X147614646Y-77699500D01*
X147425354Y-77699500D01*
X147425352Y-77699500D01*
X147240197Y-77738855D01*
X147067272Y-77815847D01*
X147002123Y-77863181D01*
X146914129Y-77927112D01*
X146908401Y-77933472D01*
X146848916Y-77970121D01*
X146816253Y-77974500D01*
X145030453Y-77974500D01*
X144963414Y-77954815D01*
X144942772Y-77938181D01*
X143381819Y-76377227D01*
X143348334Y-76315904D01*
X143345500Y-76289546D01*
X143345500Y-74599999D01*
X150789938Y-74599999D01*
X150810145Y-74830961D01*
X150870151Y-75054907D01*
X150968133Y-75265032D01*
X151023023Y-75343422D01*
X151023024Y-75343423D01*
X151594070Y-74772376D01*
X151596884Y-74785915D01*
X151666442Y-74920156D01*
X151769638Y-75030652D01*
X151898819Y-75109209D01*
X151950002Y-75123549D01*
X151376575Y-75696975D01*
X151376575Y-75696976D01*
X151454967Y-75751866D01*
X151665092Y-75849848D01*
X151889038Y-75909854D01*
X152120000Y-75930061D01*
X152350961Y-75909854D01*
X152574907Y-75849848D01*
X152785028Y-75751867D01*
X152863423Y-75696975D01*
X152636026Y-75469578D01*
X155794500Y-75469578D01*
X155794501Y-75472872D01*
X155800909Y-75532483D01*
X155851204Y-75667331D01*
X155937454Y-75782546D01*
X156052669Y-75868796D01*
X156187517Y-75919091D01*
X156247127Y-75925500D01*
X157992872Y-75925499D01*
X158052483Y-75919091D01*
X158187331Y-75868796D01*
X158302546Y-75782546D01*
X158388796Y-75667331D01*
X158439091Y-75532483D01*
X158445500Y-75472873D01*
X158445499Y-73727128D01*
X158439091Y-73667517D01*
X158388796Y-73532669D01*
X158302546Y-73417454D01*
X158187331Y-73331204D01*
X158052483Y-73280909D01*
X157992873Y-73274500D01*
X157989550Y-73274500D01*
X156250439Y-73274500D01*
X156250420Y-73274500D01*
X156247128Y-73274501D01*
X156243848Y-73274853D01*
X156243840Y-73274854D01*
X156187515Y-73280909D01*
X156052669Y-73331204D01*
X155937454Y-73417454D01*
X155851204Y-73532668D01*
X155800910Y-73667515D01*
X155800909Y-73667517D01*
X155794500Y-73727127D01*
X155794500Y-73730448D01*
X155794500Y-73730449D01*
X155794500Y-75469560D01*
X155794500Y-75469578D01*
X152636026Y-75469578D01*
X152291568Y-75125121D01*
X152408458Y-75074349D01*
X152525739Y-74978934D01*
X152612928Y-74855415D01*
X152643354Y-74769802D01*
X153216975Y-75343423D01*
X153271867Y-75265028D01*
X153369848Y-75054907D01*
X153429854Y-74830961D01*
X153450061Y-74599999D01*
X153429854Y-74369038D01*
X153369848Y-74145092D01*
X153271867Y-73934972D01*
X153216974Y-73856576D01*
X152645929Y-74427622D01*
X152643116Y-74414085D01*
X152573558Y-74279844D01*
X152470362Y-74169348D01*
X152341181Y-74090791D01*
X152289997Y-74076450D01*
X152863423Y-73503024D01*
X152863422Y-73503023D01*
X152785032Y-73448133D01*
X152574907Y-73350151D01*
X152350961Y-73290145D01*
X152119999Y-73269938D01*
X151889038Y-73290145D01*
X151665092Y-73350151D01*
X151454968Y-73448133D01*
X151376577Y-73503023D01*
X151376576Y-73503024D01*
X151948431Y-74074878D01*
X151831542Y-74125651D01*
X151714261Y-74221066D01*
X151627072Y-74344585D01*
X151596645Y-74430197D01*
X151023024Y-73856576D01*
X151023023Y-73856577D01*
X150968133Y-73934968D01*
X150870151Y-74145092D01*
X150810145Y-74369038D01*
X150789938Y-74599999D01*
X143345500Y-74599999D01*
X143345500Y-72750000D01*
X172870000Y-72750000D01*
X172870000Y-73294518D01*
X172870354Y-73301132D01*
X172876400Y-73357371D01*
X172926647Y-73492089D01*
X173012811Y-73607188D01*
X173127910Y-73693352D01*
X173262628Y-73743599D01*
X173318867Y-73749645D01*
X173325482Y-73750000D01*
X174870000Y-73750000D01*
X174870000Y-72750000D01*
X172870000Y-72750000D01*
X143345500Y-72750000D01*
X143345500Y-72250000D01*
X172870000Y-72250000D01*
X174870000Y-72250000D01*
X174870000Y-71250000D01*
X173325482Y-71250000D01*
X173318867Y-71250354D01*
X173262628Y-71256400D01*
X173127910Y-71306647D01*
X173012811Y-71392811D01*
X172926647Y-71507910D01*
X172876400Y-71642628D01*
X172870354Y-71698867D01*
X172870000Y-71705481D01*
X172870000Y-72250000D01*
X143345500Y-72250000D01*
X143345500Y-69169218D01*
X146920000Y-69169218D01*
X146920158Y-69173644D01*
X146935300Y-69385357D01*
X146996111Y-69664902D01*
X147096088Y-69932952D01*
X147233193Y-70184041D01*
X147404642Y-70413069D01*
X147606930Y-70615357D01*
X147835958Y-70786806D01*
X148087047Y-70923911D01*
X148355097Y-71023888D01*
X148634643Y-71084700D01*
X148669999Y-71087228D01*
X148670000Y-71087228D01*
X148670000Y-68968245D01*
X148767791Y-68993566D01*
X148970910Y-69003867D01*
X149170000Y-68973366D01*
X149170000Y-71087228D01*
X149205356Y-71084700D01*
X149484902Y-71023888D01*
X149752952Y-70923911D01*
X150004041Y-70786806D01*
X150233069Y-70615357D01*
X150435357Y-70413069D01*
X150606806Y-70184041D01*
X150743911Y-69932952D01*
X150843888Y-69664902D01*
X150904699Y-69385357D01*
X150919841Y-69173644D01*
X150920000Y-69169218D01*
X158320000Y-69169218D01*
X158320158Y-69173644D01*
X158335300Y-69385357D01*
X158396111Y-69664902D01*
X158496088Y-69932952D01*
X158633193Y-70184041D01*
X158804642Y-70413069D01*
X159006930Y-70615357D01*
X159235958Y-70786806D01*
X159487047Y-70923911D01*
X159755097Y-71023888D01*
X160034643Y-71084700D01*
X160069999Y-71087228D01*
X160070000Y-71087228D01*
X160070000Y-68968245D01*
X160167791Y-68993566D01*
X160370910Y-69003867D01*
X160570000Y-68973366D01*
X160570000Y-71087228D01*
X160605356Y-71084700D01*
X160884902Y-71023888D01*
X161152952Y-70923911D01*
X161404041Y-70786806D01*
X161633069Y-70615357D01*
X161835357Y-70413069D01*
X162006806Y-70184041D01*
X162143911Y-69932952D01*
X162243888Y-69664902D01*
X162304699Y-69385357D01*
X162319841Y-69173644D01*
X162320000Y-69169218D01*
X162320000Y-67850000D01*
X161320000Y-67850000D01*
X161320000Y-67350000D01*
X162320000Y-67350000D01*
X172870000Y-67350000D01*
X172870000Y-67894518D01*
X172870354Y-67901132D01*
X172876400Y-67957371D01*
X172926647Y-68092089D01*
X173012811Y-68207188D01*
X173127910Y-68293352D01*
X173262628Y-68343599D01*
X173318867Y-68349645D01*
X173325482Y-68350000D01*
X174870000Y-68350000D01*
X174870000Y-67350000D01*
X172870000Y-67350000D01*
X162320000Y-67350000D01*
X162320000Y-66850000D01*
X172870000Y-66850000D01*
X174870000Y-66850000D01*
X174870000Y-65850000D01*
X173325482Y-65850000D01*
X173318867Y-65850354D01*
X173262628Y-65856400D01*
X173127910Y-65906647D01*
X173012811Y-65992811D01*
X172926647Y-66107910D01*
X172876400Y-66242628D01*
X172870354Y-66298867D01*
X172870000Y-66305481D01*
X172870000Y-66850000D01*
X162320000Y-66850000D01*
X162320000Y-66030781D01*
X162319841Y-66026355D01*
X162304699Y-65814642D01*
X162243888Y-65535097D01*
X162143911Y-65267047D01*
X162006806Y-65015958D01*
X161835357Y-64786930D01*
X161633069Y-64584642D01*
X161404041Y-64413193D01*
X161152952Y-64276088D01*
X160884902Y-64176111D01*
X160605358Y-64115300D01*
X160570000Y-64112771D01*
X160570000Y-66231754D01*
X160472209Y-66206434D01*
X160269090Y-66196133D01*
X160070000Y-66226633D01*
X160070000Y-64112771D01*
X160069999Y-64112771D01*
X160034641Y-64115300D01*
X159755097Y-64176111D01*
X159487047Y-64276088D01*
X159235958Y-64413193D01*
X159006930Y-64584642D01*
X158804642Y-64786930D01*
X158633193Y-65015958D01*
X158496088Y-65267047D01*
X158396111Y-65535097D01*
X158335300Y-65814642D01*
X158320158Y-66026355D01*
X158320000Y-66030781D01*
X158320000Y-67350000D01*
X159320000Y-67350000D01*
X159320000Y-67850000D01*
X158320000Y-67850000D01*
X158320000Y-69169218D01*
X150920000Y-69169218D01*
X150920000Y-67850000D01*
X149920000Y-67850000D01*
X149920000Y-67350000D01*
X150920000Y-67350000D01*
X150920000Y-66030781D01*
X150919841Y-66026355D01*
X150904699Y-65814642D01*
X150843888Y-65535097D01*
X150743911Y-65267047D01*
X150606806Y-65015958D01*
X150435357Y-64786930D01*
X150233069Y-64584642D01*
X150004041Y-64413193D01*
X149752952Y-64276088D01*
X149484902Y-64176111D01*
X149205358Y-64115300D01*
X149170000Y-64112771D01*
X149170000Y-66231754D01*
X149072209Y-66206434D01*
X148869090Y-66196133D01*
X148670000Y-66226633D01*
X148670000Y-64112771D01*
X148669999Y-64112771D01*
X148634641Y-64115300D01*
X148355097Y-64176111D01*
X148087047Y-64276088D01*
X147835958Y-64413193D01*
X147606930Y-64584642D01*
X147404642Y-64786930D01*
X147233193Y-65015958D01*
X147096088Y-65267047D01*
X146996111Y-65535097D01*
X146935300Y-65814642D01*
X146920158Y-66026355D01*
X146920000Y-66030781D01*
X146920000Y-67350000D01*
X147920000Y-67350000D01*
X147920000Y-67850000D01*
X146920000Y-67850000D01*
X146920000Y-69169218D01*
X143345500Y-69169218D01*
X143345500Y-62298687D01*
X143365185Y-62231648D01*
X143377350Y-62215714D01*
X143452533Y-62132216D01*
X143547179Y-61968284D01*
X143605674Y-61788256D01*
X143625460Y-61600000D01*
X143605674Y-61411744D01*
X143563667Y-61282461D01*
X143547179Y-61231715D01*
X143452533Y-61067783D01*
X143325870Y-60927110D01*
X143172730Y-60815848D01*
X142999802Y-60738855D01*
X142814648Y-60699500D01*
X142814646Y-60699500D01*
X142625354Y-60699500D01*
X142625352Y-60699500D01*
X142440197Y-60738855D01*
X142267269Y-60815848D01*
X142114129Y-60927110D01*
X141987466Y-61067783D01*
X141892820Y-61231715D01*
X141834326Y-61411742D01*
X141814540Y-61599999D01*
X139545500Y-61599999D01*
X139545500Y-61498687D01*
X139565185Y-61431648D01*
X139577350Y-61415714D01*
X139580925Y-61411744D01*
X139652533Y-61332216D01*
X139691940Y-61263962D01*
X139747179Y-61168284D01*
X139779647Y-61068358D01*
X139805674Y-60988256D01*
X139825460Y-60800000D01*
X139805674Y-60611744D01*
X139765757Y-60488893D01*
X139747179Y-60431715D01*
X139652533Y-60267783D01*
X139525870Y-60127110D01*
X139488556Y-60100000D01*
X150789436Y-60100000D01*
X150809650Y-60331047D01*
X150869680Y-60555080D01*
X150890626Y-60599998D01*
X150967699Y-60765282D01*
X151100730Y-60955269D01*
X151264731Y-61119270D01*
X151454718Y-61252301D01*
X151664921Y-61350320D01*
X151888950Y-61410349D01*
X152120000Y-61430563D01*
X152351050Y-61410349D01*
X152575079Y-61350320D01*
X152785282Y-61252301D01*
X152975269Y-61119270D01*
X153139270Y-60955269D01*
X153268731Y-60770380D01*
X153323306Y-60726757D01*
X153392804Y-60719564D01*
X153455159Y-60751086D01*
X153471879Y-60770382D01*
X153523022Y-60843422D01*
X153523023Y-60843423D01*
X154094070Y-60272376D01*
X154096884Y-60285915D01*
X154166442Y-60420156D01*
X154269638Y-60530652D01*
X154398819Y-60609209D01*
X154450002Y-60623549D01*
X153876575Y-61196975D01*
X153876575Y-61196976D01*
X153954967Y-61251866D01*
X154165092Y-61349848D01*
X154389038Y-61409854D01*
X154620000Y-61430061D01*
X154850961Y-61409854D01*
X155074907Y-61349848D01*
X155285028Y-61251867D01*
X155363423Y-61196975D01*
X154791568Y-60625121D01*
X154908458Y-60574349D01*
X155025739Y-60478934D01*
X155112928Y-60355415D01*
X155143354Y-60269802D01*
X155716975Y-60843423D01*
X155768120Y-60770381D01*
X155822697Y-60726756D01*
X155892195Y-60719562D01*
X155954550Y-60751085D01*
X155971263Y-60770372D01*
X156100730Y-60955269D01*
X156264731Y-61119270D01*
X156454718Y-61252301D01*
X156664921Y-61350320D01*
X156888950Y-61410349D01*
X157120000Y-61430563D01*
X157351050Y-61410349D01*
X157575079Y-61350320D01*
X157785282Y-61252301D01*
X157975269Y-61119270D01*
X158139270Y-60955269D01*
X158272301Y-60765282D01*
X158370320Y-60555079D01*
X158430349Y-60331050D01*
X158450563Y-60100000D01*
X158430349Y-59868950D01*
X158370320Y-59644921D01*
X158272301Y-59434719D01*
X158139270Y-59244731D01*
X157975269Y-59080730D01*
X157785282Y-58947699D01*
X157667338Y-58892701D01*
X157575080Y-58849680D01*
X157351047Y-58789650D01*
X157120000Y-58769436D01*
X156888952Y-58789650D01*
X156664919Y-58849680D01*
X156454721Y-58947698D01*
X156454719Y-58947699D01*
X156264731Y-59080730D01*
X156264727Y-59080733D01*
X156100733Y-59244727D01*
X156100730Y-59244730D01*
X156100730Y-59244731D01*
X155971268Y-59429621D01*
X155916693Y-59473244D01*
X155847194Y-59480437D01*
X155784840Y-59448915D01*
X155768120Y-59429620D01*
X155716974Y-59356576D01*
X155145929Y-59927622D01*
X155143116Y-59914085D01*
X155073558Y-59779844D01*
X154970362Y-59669348D01*
X154841181Y-59590791D01*
X154789997Y-59576450D01*
X155363423Y-59003024D01*
X155363422Y-59003023D01*
X155285032Y-58948133D01*
X155074907Y-58850151D01*
X154850961Y-58790145D01*
X154619999Y-58769938D01*
X154389038Y-58790145D01*
X154165092Y-58850151D01*
X153954968Y-58948133D01*
X153876577Y-59003023D01*
X153876576Y-59003024D01*
X154448431Y-59574878D01*
X154331542Y-59625651D01*
X154214261Y-59721066D01*
X154127072Y-59844585D01*
X154096645Y-59930196D01*
X153523025Y-59356576D01*
X153523024Y-59356577D01*
X153471879Y-59429619D01*
X153417301Y-59473244D01*
X153347803Y-59480436D01*
X153285448Y-59448914D01*
X153268729Y-59429618D01*
X153267225Y-59427470D01*
X153139270Y-59244731D01*
X152975269Y-59080730D01*
X152785282Y-58947699D01*
X152667338Y-58892701D01*
X152575080Y-58849680D01*
X152351047Y-58789650D01*
X152120000Y-58769436D01*
X151888952Y-58789650D01*
X151664919Y-58849680D01*
X151454721Y-58947698D01*
X151454719Y-58947699D01*
X151264731Y-59080730D01*
X151264727Y-59080733D01*
X151100733Y-59244727D01*
X151100730Y-59244730D01*
X151100730Y-59244731D01*
X150971270Y-59429620D01*
X150967698Y-59434721D01*
X150869680Y-59644919D01*
X150809650Y-59868952D01*
X150789436Y-60100000D01*
X139488556Y-60100000D01*
X139372730Y-60015848D01*
X139199802Y-59938855D01*
X139014648Y-59899500D01*
X139014646Y-59899500D01*
X138825354Y-59899500D01*
X138825352Y-59899500D01*
X138640197Y-59938855D01*
X138467269Y-60015848D01*
X138314129Y-60127110D01*
X138187466Y-60267783D01*
X138092820Y-60431715D01*
X138034326Y-60611742D01*
X138014540Y-60800000D01*
X132635500Y-60800000D01*
X132635499Y-59877128D01*
X132629091Y-59817517D01*
X132578796Y-59682669D01*
X132492546Y-59567454D01*
X132377331Y-59481204D01*
X132291166Y-59449066D01*
X132235233Y-59407196D01*
X132210816Y-59341731D01*
X132210500Y-59332885D01*
X132210500Y-59003705D01*
X132211809Y-58985735D01*
X132211961Y-58984691D01*
X132215289Y-58961977D01*
X132210972Y-58912629D01*
X132210500Y-58901823D01*
X132210500Y-58899901D01*
X132210500Y-58896291D01*
X132206903Y-58865520D01*
X132206536Y-58861929D01*
X132199889Y-58785949D01*
X132195672Y-58766930D01*
X132169592Y-58695274D01*
X132168408Y-58691868D01*
X132144814Y-58620666D01*
X132144812Y-58620663D01*
X132144415Y-58619464D01*
X132135929Y-58601936D01*
X132135237Y-58600884D01*
X132135237Y-58600883D01*
X132094001Y-58538188D01*
X132092086Y-58535181D01*
X132052048Y-58470269D01*
X132039748Y-58455170D01*
X131984275Y-58402834D01*
X131981688Y-58400321D01*
X131695728Y-58114360D01*
X131683946Y-58100727D01*
X131669609Y-58081469D01*
X131631666Y-58049631D01*
X131623691Y-58042323D01*
X131622329Y-58040961D01*
X131619777Y-58038409D01*
X131595444Y-58019169D01*
X131592647Y-58016890D01*
X131534251Y-57967890D01*
X131517821Y-57957422D01*
X131448691Y-57925186D01*
X131445447Y-57923615D01*
X131377306Y-57889394D01*
X131358903Y-57882997D01*
X131284211Y-57867574D01*
X131280692Y-57866794D01*
X131206490Y-57849208D01*
X131184268Y-57846938D01*
X131179425Y-57845938D01*
X131175208Y-57843693D01*
X131145244Y-57848447D01*
X131115086Y-57849325D01*
X131110869Y-57849448D01*
X131107263Y-57849500D01*
X119583706Y-57849500D01*
X119565737Y-57848191D01*
X119558909Y-57847191D01*
X119537634Y-57837407D01*
X119528190Y-57843477D01*
X119504061Y-57848028D01*
X119492630Y-57849028D01*
X119481824Y-57849500D01*
X119476291Y-57849500D01*
X119472730Y-57849916D01*
X119472715Y-57849917D01*
X119445501Y-57853098D01*
X119441916Y-57853464D01*
X119365961Y-57860109D01*
X119346921Y-57864330D01*
X119275232Y-57890421D01*
X119271831Y-57891603D01*
X119199474Y-57915580D01*
X119181927Y-57924075D01*
X119118221Y-57965975D01*
X119115181Y-57967912D01*
X119050280Y-58007944D01*
X119035164Y-58020257D01*
X118982831Y-58075726D01*
X118980319Y-58078312D01*
X114634358Y-62424272D01*
X114620727Y-62436053D01*
X114601468Y-62450391D01*
X114569635Y-62488328D01*
X114562338Y-62496292D01*
X114560972Y-62497657D01*
X114560950Y-62497681D01*
X114558409Y-62500223D01*
X114556173Y-62503050D01*
X114556171Y-62503053D01*
X114539176Y-62524546D01*
X114536902Y-62527337D01*
X114487894Y-62585744D01*
X114477418Y-62602187D01*
X114445192Y-62671294D01*
X114443622Y-62674536D01*
X114409393Y-62742692D01*
X114402996Y-62761098D01*
X114387573Y-62835788D01*
X114386793Y-62839305D01*
X114369208Y-62913506D01*
X114367229Y-62932881D01*
X114369447Y-63009130D01*
X114369499Y-63012735D01*
X114369500Y-64437770D01*
X114349815Y-64504809D01*
X114333181Y-64525451D01*
X103445451Y-75413181D01*
X103384128Y-75446666D01*
X103357770Y-75449500D01*
X99659337Y-75449500D01*
X99592298Y-75429815D01*
X99586450Y-75425817D01*
X99572728Y-75415847D01*
X99399802Y-75338855D01*
X99214648Y-75299500D01*
X99214646Y-75299500D01*
X99025354Y-75299500D01*
X99025352Y-75299500D01*
X98840197Y-75338855D01*
X98667269Y-75415848D01*
X98514129Y-75527110D01*
X98387466Y-75667783D01*
X98292820Y-75831715D01*
X98234326Y-76011742D01*
X98214540Y-76200000D01*
X97120500Y-76200000D01*
X97120500Y-70300000D01*
X97589529Y-70300000D01*
X97652685Y-70470530D01*
X97754890Y-70634501D01*
X97888003Y-70774535D01*
X98046585Y-70884912D01*
X98224137Y-70961106D01*
X98413395Y-71000000D01*
X98660000Y-71000000D01*
X98660000Y-70350000D01*
X99160000Y-70350000D01*
X99159999Y-70999999D01*
X99160000Y-71000000D01*
X99355033Y-71000000D01*
X99361298Y-70999682D01*
X99502222Y-70985351D01*
X99686569Y-70927511D01*
X99855503Y-70833746D01*
X100002104Y-70707894D01*
X100120368Y-70555109D01*
X100205458Y-70381641D01*
X100226597Y-70300000D01*
X99476111Y-70300000D01*
X99515610Y-70275543D01*
X99583201Y-70186038D01*
X99613895Y-70078160D01*
X99603546Y-69966479D01*
X99553552Y-69866078D01*
X99481069Y-69800000D01*
X100230471Y-69800000D01*
X100230471Y-69799999D01*
X100167314Y-69629469D01*
X100065109Y-69465498D01*
X99931996Y-69325464D01*
X99773414Y-69215087D01*
X99595862Y-69138893D01*
X99406605Y-69100000D01*
X99160000Y-69100000D01*
X99159999Y-69750000D01*
X98660000Y-69750000D01*
X98660000Y-69100000D01*
X98464967Y-69100000D01*
X98458701Y-69100317D01*
X98317777Y-69114648D01*
X98133430Y-69172488D01*
X97964496Y-69266253D01*
X97817895Y-69392105D01*
X97699631Y-69544890D01*
X97614541Y-69718358D01*
X97593403Y-69800000D01*
X98343889Y-69800000D01*
X98304390Y-69824457D01*
X98236799Y-69913962D01*
X98206105Y-70021840D01*
X98216454Y-70133521D01*
X98266448Y-70233922D01*
X98338931Y-70300000D01*
X97589529Y-70300000D01*
X97120500Y-70300000D01*
X97120500Y-64780195D01*
X99089839Y-64780195D01*
X99093949Y-64823671D01*
X99094499Y-64835339D01*
X99094499Y-66317260D01*
X99092235Y-66337771D01*
X99094439Y-66407873D01*
X99094500Y-66411768D01*
X99094500Y-66439350D01*
X99094988Y-66443219D01*
X99094989Y-66443225D01*
X99095004Y-66443343D01*
X99095918Y-66454967D01*
X99097290Y-66498626D01*
X99102879Y-66517860D01*
X99106825Y-66536916D01*
X99109335Y-66556792D01*
X99125414Y-66597404D01*
X99129197Y-66608451D01*
X99141382Y-66650391D01*
X99151580Y-66667635D01*
X99160136Y-66685100D01*
X99167514Y-66703732D01*
X99167515Y-66703733D01*
X99193180Y-66739059D01*
X99199593Y-66748822D01*
X99221826Y-66786416D01*
X99221829Y-66786419D01*
X99221830Y-66786420D01*
X99235995Y-66800585D01*
X99248627Y-66815375D01*
X99260406Y-66831587D01*
X99294058Y-66859426D01*
X99302699Y-66867289D01*
X100669197Y-68233787D01*
X100682098Y-68249889D01*
X100684212Y-68251874D01*
X100684214Y-68251877D01*
X100728380Y-68293352D01*
X100733240Y-68297916D01*
X100736036Y-68300626D01*
X100755530Y-68320120D01*
X100758615Y-68322513D01*
X100758701Y-68322580D01*
X100767573Y-68330158D01*
X100799418Y-68360062D01*
X100816974Y-68369714D01*
X100833231Y-68380392D01*
X100849064Y-68392674D01*
X100857652Y-68396390D01*
X100889156Y-68410023D01*
X100899643Y-68415160D01*
X100937908Y-68436197D01*
X100957316Y-68441180D01*
X100975712Y-68447479D01*
X101003208Y-68459377D01*
X101056917Y-68504066D01*
X101077939Y-68570698D01*
X101077285Y-68586140D01*
X101065318Y-68699999D01*
X101083995Y-68877699D01*
X101143236Y-69060025D01*
X101140900Y-69060783D01*
X101153094Y-69111059D01*
X101130238Y-69177085D01*
X101089413Y-69213570D01*
X100994495Y-69266254D01*
X100847895Y-69392105D01*
X100729631Y-69544890D01*
X100644541Y-69718358D01*
X100623403Y-69800000D01*
X101373889Y-69800000D01*
X101334390Y-69824457D01*
X101266799Y-69913962D01*
X101236105Y-70021840D01*
X101246454Y-70133521D01*
X101296448Y-70233922D01*
X101368931Y-70300000D01*
X100619529Y-70300000D01*
X100682685Y-70470530D01*
X100784890Y-70634501D01*
X100918003Y-70774535D01*
X101076585Y-70884912D01*
X101254137Y-70961106D01*
X101443395Y-71000000D01*
X102040000Y-71000000D01*
X102039999Y-70999999D01*
X102040000Y-70350000D01*
X102540000Y-70350000D01*
X102540000Y-71000000D01*
X103085033Y-71000000D01*
X103091298Y-70999682D01*
X103232222Y-70985351D01*
X103416569Y-70927511D01*
X103585503Y-70833746D01*
X103732104Y-70707894D01*
X103850368Y-70555109D01*
X103935458Y-70381641D01*
X103956597Y-70300000D01*
X103206111Y-70300000D01*
X103245610Y-70275543D01*
X103313201Y-70186038D01*
X103343895Y-70078160D01*
X103333546Y-69966479D01*
X103283552Y-69866078D01*
X103211069Y-69800000D01*
X103960471Y-69800000D01*
X103960471Y-69799999D01*
X103897314Y-69629470D01*
X103795111Y-69465502D01*
X103779533Y-69449114D01*
X103754592Y-69448799D01*
X103748905Y-69451905D01*
X103679213Y-69446921D01*
X103634866Y-69418420D01*
X103128628Y-68912181D01*
X103095143Y-68850858D01*
X103098443Y-68804710D01*
X103109613Y-68827905D01*
X103180992Y-68884827D01*
X103247468Y-68900000D01*
X103292532Y-68900000D01*
X103359008Y-68884827D01*
X103430387Y-68827905D01*
X103470000Y-68745649D01*
X103469999Y-68676989D01*
X103511805Y-68668103D01*
X103581470Y-68673419D01*
X103625266Y-68701712D01*
X104021651Y-69098097D01*
X104050790Y-69047629D01*
X104106004Y-68877699D01*
X104124681Y-68699999D01*
X104106004Y-68522300D01*
X104050792Y-68352372D01*
X104042206Y-68337501D01*
X104025733Y-68269601D01*
X104042206Y-68213499D01*
X104045850Y-68207188D01*
X104051250Y-68197835D01*
X104106497Y-68027803D01*
X104125185Y-67850000D01*
X104106497Y-67672197D01*
X104051250Y-67502165D01*
X104042494Y-67487000D01*
X104026021Y-67419102D01*
X104042495Y-67362998D01*
X104051250Y-67347835D01*
X104106497Y-67177803D01*
X104125185Y-67000000D01*
X104106497Y-66822197D01*
X104051250Y-66652165D01*
X104042494Y-66637000D01*
X104026021Y-66569102D01*
X104042495Y-66512998D01*
X104051250Y-66497835D01*
X104106497Y-66327803D01*
X104125185Y-66150000D01*
X104106497Y-65972197D01*
X104051250Y-65802165D01*
X104042493Y-65786997D01*
X104026021Y-65719100D01*
X104042495Y-65662997D01*
X104051250Y-65647835D01*
X104106497Y-65477803D01*
X104125185Y-65300000D01*
X104106497Y-65122197D01*
X104051250Y-64952165D01*
X104042494Y-64937000D01*
X104026021Y-64869102D01*
X104042495Y-64812998D01*
X104051250Y-64797835D01*
X104106497Y-64627803D01*
X104125185Y-64450000D01*
X104106497Y-64272197D01*
X104051250Y-64102165D01*
X104042494Y-64087000D01*
X104026021Y-64019102D01*
X104042495Y-63962998D01*
X104051250Y-63947835D01*
X104106497Y-63777803D01*
X104125185Y-63600000D01*
X104106497Y-63422197D01*
X104051250Y-63252165D01*
X104042205Y-63236498D01*
X104025734Y-63168598D01*
X104042207Y-63112496D01*
X104050792Y-63097626D01*
X104106004Y-62927699D01*
X104124681Y-62750000D01*
X104106004Y-62572300D01*
X104050791Y-62402371D01*
X104021651Y-62351900D01*
X103625266Y-62748286D01*
X103563943Y-62781771D01*
X103511805Y-62781895D01*
X103470000Y-62773009D01*
X103470000Y-62704351D01*
X103430387Y-62622095D01*
X103359008Y-62565173D01*
X103292532Y-62550000D01*
X103247468Y-62550000D01*
X103180992Y-62565173D01*
X103109613Y-62622095D01*
X103098836Y-62644472D01*
X103093571Y-62607853D01*
X103122596Y-62544297D01*
X103128628Y-62537819D01*
X103634867Y-62031579D01*
X103696190Y-61998094D01*
X103741371Y-62001325D01*
X103777673Y-61999023D01*
X103850368Y-61905109D01*
X103935458Y-61731640D01*
X103956597Y-61650000D01*
X103206111Y-61650000D01*
X103245610Y-61625543D01*
X103313201Y-61536038D01*
X103343895Y-61428160D01*
X103333546Y-61316479D01*
X103283552Y-61216078D01*
X103211069Y-61150000D01*
X103960471Y-61150000D01*
X103960471Y-61149999D01*
X103897314Y-60979469D01*
X103795109Y-60815498D01*
X103661996Y-60675464D01*
X103503414Y-60565087D01*
X103325862Y-60488893D01*
X103136605Y-60450000D01*
X102540000Y-60450000D01*
X102540000Y-61100000D01*
X102039999Y-61100000D01*
X102040000Y-60450000D01*
X101494967Y-60450000D01*
X101488701Y-60450317D01*
X101347777Y-60464648D01*
X101163430Y-60522488D01*
X100994496Y-60616253D01*
X100847895Y-60742105D01*
X100729631Y-60894890D01*
X100644541Y-61068358D01*
X100623403Y-61150000D01*
X101373889Y-61150000D01*
X101334390Y-61174457D01*
X101266799Y-61263962D01*
X101236105Y-61371840D01*
X101246454Y-61483521D01*
X101296448Y-61583922D01*
X101368931Y-61650000D01*
X100619529Y-61650000D01*
X100682685Y-61820530D01*
X100784890Y-61984501D01*
X100918003Y-62124535D01*
X101086935Y-62242116D01*
X101086227Y-62243132D01*
X101129811Y-62279171D01*
X101151037Y-62345739D01*
X101140000Y-62388923D01*
X101143236Y-62389975D01*
X101083995Y-62572300D01*
X101065318Y-62750000D01*
X101074377Y-62836194D01*
X101061807Y-62904924D01*
X101014075Y-62955947D01*
X100954950Y-62973094D01*
X100912144Y-62974439D01*
X100908250Y-62974500D01*
X100880650Y-62974500D01*
X100876799Y-62974986D01*
X100876768Y-62974988D01*
X100876640Y-62975005D01*
X100865028Y-62975918D01*
X100821368Y-62977290D01*
X100802128Y-62982880D01*
X100783081Y-62986825D01*
X100763209Y-62989335D01*
X100722599Y-63005413D01*
X100711554Y-63009194D01*
X100669611Y-63021380D01*
X100652369Y-63031578D01*
X100634897Y-63040138D01*
X100616266Y-63047514D01*
X100580938Y-63073181D01*
X100571180Y-63079591D01*
X100533579Y-63101829D01*
X100519410Y-63115998D01*
X100504622Y-63128628D01*
X100488413Y-63140405D01*
X100460572Y-63174058D01*
X100452711Y-63182696D01*
X99336208Y-64299199D01*
X99320110Y-64312096D01*
X99272096Y-64363225D01*
X99269392Y-64366016D01*
X99252628Y-64382780D01*
X99252621Y-64382787D01*
X99249880Y-64385529D01*
X99247499Y-64388597D01*
X99247490Y-64388608D01*
X99247411Y-64388711D01*
X99239842Y-64397572D01*
X99209935Y-64429420D01*
X99200285Y-64446974D01*
X99189609Y-64463228D01*
X99177326Y-64479063D01*
X99159975Y-64519158D01*
X99154838Y-64529644D01*
X99133802Y-64567907D01*
X99128821Y-64587309D01*
X99122520Y-64605711D01*
X99114561Y-64624102D01*
X99107728Y-64667242D01*
X99105360Y-64678674D01*
X99094499Y-64720977D01*
X99094500Y-64741016D01*
X99092973Y-64760415D01*
X99089839Y-64780195D01*
X97120500Y-64780195D01*
X97120500Y-61650000D01*
X97589529Y-61650000D01*
X97652685Y-61820530D01*
X97754890Y-61984501D01*
X97888003Y-62124535D01*
X98046585Y-62234912D01*
X98224137Y-62311106D01*
X98413395Y-62350000D01*
X98660000Y-62350000D01*
X98660000Y-61700000D01*
X99160000Y-61700000D01*
X99159999Y-62349999D01*
X99160000Y-62350000D01*
X99355033Y-62350000D01*
X99361298Y-62349682D01*
X99502222Y-62335351D01*
X99686569Y-62277511D01*
X99855503Y-62183746D01*
X100002104Y-62057894D01*
X100120368Y-61905109D01*
X100205458Y-61731641D01*
X100226597Y-61650000D01*
X99476111Y-61650000D01*
X99515610Y-61625543D01*
X99583201Y-61536038D01*
X99613895Y-61428160D01*
X99603546Y-61316479D01*
X99553552Y-61216078D01*
X99481069Y-61150000D01*
X100230471Y-61150000D01*
X100230471Y-61149999D01*
X100167314Y-60979469D01*
X100065109Y-60815498D01*
X99931996Y-60675464D01*
X99773414Y-60565087D01*
X99595862Y-60488893D01*
X99406605Y-60450000D01*
X99160000Y-60450000D01*
X99159999Y-61100000D01*
X98660000Y-61100000D01*
X98660000Y-60450000D01*
X98464967Y-60450000D01*
X98458701Y-60450317D01*
X98317777Y-60464648D01*
X98133430Y-60522488D01*
X97964496Y-60616253D01*
X97817895Y-60742105D01*
X97699631Y-60894890D01*
X97614541Y-61068358D01*
X97593403Y-61150000D01*
X98343889Y-61150000D01*
X98304390Y-61174457D01*
X98236799Y-61263962D01*
X98206105Y-61371840D01*
X98216454Y-61483521D01*
X98266448Y-61583922D01*
X98338931Y-61650000D01*
X97589529Y-61650000D01*
X97120500Y-61650000D01*
X97120500Y-57724500D01*
X97140185Y-57657461D01*
X97192989Y-57611706D01*
X97244500Y-57600500D01*
X119493255Y-57600500D01*
X119535124Y-57612794D01*
G37*
%TD.AperFunction*%
%TD*%
M02*
